<?xml version="1.0" encoding="UTF-8" standalone="no"?>
<!-- Generator: Adobe Illustrator 22.1.0, SVG Export Plug-In . SVG Version: 6.00 Build 0)  -->

<svg
   xmlns:dc="http://purl.org/dc/elements/1.1/"
   xmlns:cc="http://creativecommons.org/ns#"
   xmlns:rdf="http://www.w3.org/1999/02/22-rdf-syntax-ns#"
   xmlns:svg="http://www.w3.org/2000/svg"
   xmlns="http://www.w3.org/2000/svg"
   xmlns:sodipodi="http://sodipodi.sourceforge.net/DTD/sodipodi-0.dtd"
   xmlns:inkscape="http://www.inkscape.org/namespaces/inkscape"
   version="1.1"
   id="Ebene_1"
   x="0px"
   y="0px"
   viewBox="0 0 518.36395 102.4049"
   xml:space="preserve"
   sodipodi:docname="logo_platona-m_klein.svg"
   inkscape:export-filename="/home/natanael/Dokumente/Arbeit/InfAI/Platona-M/images/logo_platona-m_klein.svg.png"
   inkscape:export-xdpi="83.889999"
   inkscape:export-ydpi="83.889999"
   width="518.36395"
   height="102.4049"
   inkscape:version="0.92.4 (5da689c313, 2019-01-14)"><metadata
   id="metadata51"><rdf:RDF><cc:Work
       rdf:about=""><dc:format>image/svg+xml</dc:format><dc:type
         rdf:resource="http://purl.org/dc/dcmitype/StillImage" /><dc:title>logo_platona-m</dc:title></cc:Work></rdf:RDF></metadata><defs
   id="defs49">
	

		
		
		
		
		
		
		
		
		
		
		
		
		
		
		
		
		
		
		
	</defs><sodipodi:namedview
   pagecolor="#ffffff"
   bordercolor="#666666"
   borderopacity="1"
   objecttolerance="10"
   gridtolerance="10"
   guidetolerance="10"
   inkscape:pageopacity="0"
   inkscape:pageshadow="2"
   inkscape:window-width="1920"
   inkscape:window-height="1025"
   id="namedview47"
   showgrid="false"
   fit-margin-top="0"
   fit-margin-left="0"
   fit-margin-right="0"
   fit-margin-bottom="0"
   inkscape:zoom="1.131919"
   inkscape:cx="222.94852"
   inkscape:cy="-44.237399"
   inkscape:window-x="0"
   inkscape:window-y="27"
   inkscape:window-maximized="1"
   inkscape:current-layer="Ebene_1" />
<style
   type="text/css"
   id="style2">
	.st0{fill:#67A7DE;}
	.st1{fill:#E7B040;}
	.st2{fill:#FFFFFF;}
</style>
<title
   id="title4">logo_platona-m</title>
<g
   id="g918"
   transform="matrix(2.2636064,0,0,2.2636064,62.7,-61.562402)"><path
     style="fill:#67a7de"
     inkscape:connector-curvature="0"
     id="path6"
     d="m 18.2,52.4 c 0,2.3 -1.1,3.5 -3.4,3.5 H 5.6 V 69.6 H 0 V 31.9 h 14.8 c 2.3,0 3.5,1.2 3.5,3.5 z M 12.5,51.1 V 36.7 H 5.6 v 14.4 z"
     class="st0" /><path
     style="fill:#67a7de"
     inkscape:connector-curvature="0"
     id="path8"
     d="M 37,69.6 H 22.2 V 31.9 h 5.6 V 64.6 H 37 Z"
     class="st0" /><path
     style="fill:#67a7de"
     inkscape:connector-curvature="0"
     id="path10"
     d="m 59.5,69.6 h -5.6 l -1.1,-7.2 h -7.1 l -1.1,7.2 H 39 v -0.1 l 7.3,-37.7 h 5.9 z m -7.5,-12 -2.7,-17 -2.8,17 z"
     class="st0" /><path
     style="fill:#67a7de"
     inkscape:connector-curvature="0"
     id="path12"
     d="M 79.1,36.8 H 72.9 V 69.5 H 67.3 V 36.8 H 61 v -5 h 18 z"
     class="st0" /><path
     style="fill:#67a7de"
     inkscape:connector-curvature="0"
     id="path14"
     d="m 100.9,66.1 c 0,2.3 -1.1,3.4 -3.4,3.4 H 85.3 C 83.1,69.5 82,68.3 82,66.1 V 35.3 c 0,-2.3 1.1,-3.5 3.3,-3.5 h 12.2 c 2.3,0 3.4,1.2 3.4,3.5 z m -5.6,-1.4 v -28 h -7.7 v 28 z"
     class="st0" /><path
     style="fill:#67a7de"
     inkscape:connector-curvature="0"
     id="path16"
     d="m 124.6,69.6 h -4.9 l -9,-23.7 c 0.2,0.9 0.3,1.8 0.4,2.7 v 21 h -5.5 V 31.9 h 4.9 l 9,23.3 c -0.2,-0.9 -0.3,-1.8 -0.4,-2.7 V 31.9 h 5.5 z"
     class="st0" /><path
     style="fill:#67a7de"
     inkscape:connector-curvature="0"
     id="path18"
     d="m 148.2,69.6 h -5.6 l -1.1,-7.2 h -7.1 l -1.1,7.2 h -5.6 V 69.5 L 135,31.8 h 6 z m -7.5,-12 -2.7,-17 -2.8,17 z"
     class="st0" /><path
     style="fill:#67a7de"
     inkscape:connector-curvature="0"
     id="path20"
     d="m 201.3,69.6 h -5.4 V 51 c 0,-1.4 0.1,-2.7 0.3,-4.1 l -4.9,19.3 h -2.9 l -4.9,-19.3 c 0.2,1.4 0.3,2.7 0.3,4.1 v 18.6 h -5.4 V 31.9 h 5.3 l 5.9,20.8 c 0.1,0.6 0.1,1.1 0.1,1.7 0,-0.6 0.1,-1.1 0.1,-1.7 l 5.9,-20.8 h 5.3 z"
     class="st0" /><circle
     style="fill:#e7b040"
     id="circle40"
     r="8.8999996"
     cy="51.099998"
     cx="162.2"
     class="st1" /></g><g
   id="g907"
   transform="translate(-211.2,0.03125)"><path
     style="fill:#e7b040"
     inkscape:connector-curvature="0"
     id="path22"
     d="m 229.2,89.4 -4.4,4.4 c -2.2,-0.8 -4.6,0.2 -5.4,2.4 -0.8,2.2 0.2,4.6 2.4,5.4 2.2,0.8 4.6,-0.2 5.4,-2.4 0.4,-1 0.4,-2.1 0,-3 l 5.4,-5.4 V 73.3 c -1.1,-0.1 -2.3,-0.2 -3.4,-0.5 z"
     class="st1" /><path
     style="fill:#e7b040"
     inkscape:connector-curvature="0"
     id="path24"
     d="m 239.4,18.1 6.3,-6.3 c 2.2,0.8 4.6,-0.2 5.4,-2.4 0.8,-2.2 -0.2,-4.6 -2.4,-5.4 -2.2,-0.8 -4.6,0.2 -5.4,2.4 -0.4,1 -0.4,2.1 0,3 l -7.3,7.3 v 10.9 c 1.1,0.1 2.3,0.3 3.4,0.6 z"
     class="st1" /><path
     style="fill:#67a7de"
     inkscape:connector-curvature="0"
     id="path26"
     d="m 219.3,14.9 c 0.8,-2.2 -0.2,-4.6 -2.4,-5.4 -1,-0.4 -2.1,-0.4 -3.1,0 -0.5,0.2 -1,0.5 -1.4,0.9 -1.6,1.6 -1.6,4.3 0,5.9 0,0 0,0 0,0 1.2,1.2 2.9,1.5 4.5,0.9 l 5.4,5.4 v 7.9 c 1.1,-0.6 2.2,-1.2 3.4,-1.6 v -7.7 z"
     class="st0" /><path
     style="fill:#67a7de"
     inkscape:connector-curvature="0"
     id="path28"
     d="m 225.7,71.9 c -1.2,-0.5 -2.3,-1 -3.4,-1.6 V 77 l -4.8,4.8 c -1.2,-0.5 -2.6,-0.3 -3.7,0.3 -0.3,0.2 -0.6,0.4 -0.8,0.6 -1.6,1.6 -1.6,4.3 0,5.9 0,0 0,0 0,0 0.2,0.2 0.5,0.5 0.8,0.6 2,1.2 4.5,0.6 5.7,-1.4 0.7,-1.1 0.8,-2.5 0.3,-3.7 l 5.8,-5.8 v -6.4 z"
     class="st0" /><path
     style="fill:#67a7de"
     inkscape:connector-curvature="0"
     id="path30"
     d="m 232.6,8 c 2.1,-0.9 3.1,-3.4 2.2,-5.5 -0.9,-2.1 -3.4,-3.1 -5.5,-2.2 -2.1,0.9 -3.1,3.4 -2.2,5.5 0.4,1 1.2,1.7 2.2,2.2 v 19.9 c 1.1,-0.2 2.2,-0.4 3.4,-0.5 V 8 Z"
     class="st0" /><path
     style="fill:#67a7de"
     inkscape:connector-curvature="0"
     id="path32"
     d="m 236.1,93.9 2.8,2.8 c -0.8,2.2 0.2,4.6 2.4,5.4 2.2,0.8 4.6,-0.2 5.4,-2.4 0.8,-2.2 -0.2,-4.6 -2.4,-5.4 -1,-0.4 -2.1,-0.4 -3,0 l -1.8,-1.8 V 72.8 c -1.1,0.3 -2.2,0.5 -3.4,0.6 z"
     class="st0" /><path
     style="fill:#67a7de"
     inkscape:connector-curvature="0"
     id="path34"
     d="m 251.1,87.4 -4.8,-4.8 V 69.8 c -1.1,0.7 -2.2,1.3 -3.4,1.8 V 84 l 5.8,5.8 c -0.8,2.2 0.2,4.6 2.4,5.4 2.2,0.8 4.6,-0.2 5.4,-2.4 0.8,-2.2 -0.2,-4.6 -2.4,-5.4 -1,-0.4 -2,-0.4 -3,0 z"
     class="st0" /><path
     style="fill:#67a7de"
     inkscape:connector-curvature="0"
     id="path36"
     d="m 246.3,25.2 6,-6 c 2.2,0.8 4.6,-0.2 5.4,-2.4 0.8,-2.2 -0.2,-4.6 -2.4,-5.4 -2.2,-0.8 -4.6,0.2 -5.4,2.4 -0.4,1 -0.4,2.1 0,3 l -7,7 v 5.4 c 1.2,0.5 2.3,1.1 3.4,1.8 z"
     class="st0" /><path
     style="fill:#e7b040"
     inkscape:connector-curvature="0"
     id="path38"
     d="m 234,30.3 c 11.1,0 20.1,9 20.1,20.1 0,11.1 -9,20.1 -20.1,20.1 -11.1,0 -20.1,-9 -20.1,-20.1 0,-11.1 9,-20.1 20.1,-20.1 v 0"
     class="st1" /><path
     style="fill:#ffffff"
     inkscape:connector-curvature="0"
     id="path42"
     d="m 240.2,47 v -2 c 0,-3.6 -2.9,-6.5 -6.5,-6.5 -3.6,0 -6.5,2.9 -6.5,6.5 v 2 h -2 v 13 h 17.5 V 47 Z m -10.3,-2 c 0,-2.1 1.7,-3.8 3.8,-3.8 2.1,0 3.8,1.7 3.8,3.8 0,0 0,0 0,0 v 2 h -7.6 z"
     class="st2" /></g>
</svg>