<?xml version="1.0" encoding="UTF-8" standalone="no"?>
<!-- Created with Inkscape (http://www.inkscape.org/) -->

<svg
   xmlns:dc="http://purl.org/dc/elements/1.1/"
   xmlns:cc="http://creativecommons.org/ns#"
   xmlns:rdf="http://www.w3.org/1999/02/22-rdf-syntax-ns#"
   xmlns:svg="http://www.w3.org/2000/svg"
   xmlns="http://www.w3.org/2000/svg"
   xmlns:sodipodi="http://sodipodi.sourceforge.net/DTD/sodipodi-0.dtd"
   xmlns:inkscape="http://www.inkscape.org/namespaces/inkscape"
   width="320"
   height="200"
   id="svg2"
   version="1.1"
   inkscape:version="0.48.5 r10040"
   sodipodi:docname="Neues Dokument 1">
  <defs
     id="defs4" />
  <sodipodi:namedview
     id="base"
     pagecolor="#ffffff"
     bordercolor="#666666"
     borderopacity="1.0"
     inkscape:pageopacity="0.0"
     inkscape:pageshadow="2"
     inkscape:zoom="2.18"
     inkscape:cx="151.73755"
     inkscape:cy="134.6789"
     inkscape:document-units="px"
     inkscape:current-layer="layer1"
     showgrid="false"
     inkscape:window-width="1760"
     inkscape:window-height="1054"
     inkscape:window-x="2710"
     inkscape:window-y="150"
     inkscape:window-maximized="0" />
  <metadata
     id="metadata7">
    <rdf:RDF>
      <cc:Work
         rdf:about="">
        <dc:format>image/svg+xml</dc:format>
        <dc:type
           rdf:resource="http://purl.org/dc/dcmitype/StillImage" />
        <dc:title></dc:title>
      </cc:Work>
    </rdf:RDF>
  </metadata>
  <g
     inkscape:label="Ebene 1"
     inkscape:groupmode="layer"
     id="layer1"
     transform="translate(0,-852.36218)">
    <path
       d="m 122.21661,912.50058 36.58795,-22.63838 36.2873,22.27533 -36.52956,23.3827 -36.34569,-23.01965"
       style="fill:#918f90;fill-opacity:1;fill-rule:nonzero;stroke:none"
       id="path22"
       inkscape:connector-curvature="0" />
    <path
       d="m 161.22727,982.6728 36.10048,-22.46024 0,-43.6041 -36.10048,23.07021 0,42.99413"
       style="fill:#4f4c4c;fill-opacity:1;fill-rule:nonzero;stroke:none"
       id="path24"
       inkscape:connector-curvature="0" />
    <path
       d="m 211.04436,957.58293 0,-49.63219 -8.94229,5.72365 0,43.90854 -0.01,-0.022 0.01,0.17265 c -0.018,0.69734 -0.28117,6.15081 -4.47198,8.52634 -6.73412,3.81718 -25.76775,15.74834 -36.3986,22.44713 l -0.004,10.57732 c 8.10975,-5.12385 33.09427,-20.86987 40.81303,-25.24495 9.25922,-5.24847 9.00407,-16.45648 9.00407,-16.45648"
       style="fill:#c4122e;fill-opacity:1;fill-rule:nonzero;stroke:none"
       id="path26"
       inkscape:connector-curvature="0" />
    <path
       d="m 167.62117,879.40378 c -2.92921,-1.98645 -5.84594,-2.64909 -8.4341,-2.64867 -5.17461,0 -9.03241,2.64867 -9.03241,2.64867 l -40.57587,25.07909 8.3556,5.34811 36.92181,-22.82035 0.047,-10e-4 0.24627,-0.18407 c 0.36243,-0.20966 2.06262,-1.1281 4.0387,-1.1281 1.21506,0 2.29893,0.35142 3.41371,1.10695 7.24886,4.91692 26.46445,16.40887 36.92456,22.61638 l 8.43388,-5.39783 c -8.52316,-5.04048 -32.3197,-19.17962 -40.33912,-24.61913"
       style="fill:#c4122e;fill-opacity:1;fill-rule:nonzero;stroke:none"
       id="path28"
       inkscape:connector-curvature="0" />
    <path
       d="m 119.51251,966.16068 -0.47265,-0.22194 c -0.0381,-0.0173 -3.82903,-2.19506 -3.82903,-8.6463 l -0.003,-43.30471 -8.94272,-5.72408 0.003,49.02985 c 0,12.539 8.97932,16.744 8.97932,16.744 l 41.00684,25.39876 0.005,-10.51638 -36.30275,-22.48416 -0.44388,-0.27504"
       style="fill:#c4122e;fill-opacity:1;fill-rule:nonzero;stroke:none"
       id="path30"
       inkscape:connector-curvature="0" />
    <path
       d="m 3.7101861,1043.2969 0,-27.0426 3.2135,0 0,23.9747 10.2151899,0 0,3.0679 -13.4286899,0"
       style="fill:#c4122e;fill-opacity:1;fill-rule:nonzero;stroke:none"
       id="path32"
       inkscape:connector-curvature="0" />
    <path
       d="m 21.701546,1034.8918 c 0,1.7857 0.59613,3.2968 1.79026,4.5344 1.19523,1.2382 2.6416,1.8558 4.34116,1.8558 1.68644,0 3.12089,-0.6176 4.30421,-1.8558 1.181,-1.2376 1.77255,-2.7487 1.77255,-4.5344 0,-1.7859 -0.59155,-3.2965 -1.77255,-4.5347 -1.18332,-1.2375 -2.61777,-1.8555 -4.30421,-1.8555 -1.71162,0 -3.16105,0.618 -4.34992,1.8555 -1.18753,1.2382 -1.7815,2.7488 -1.7815,4.5347 z m -3.06719,0 c 0,-1.2444 0.22801,-2.4167 0.68323,-3.5193 0.45619,-1.1005 1.12107,-2.0828 1.99529,-2.9452 0.87455,-0.8622 1.86564,-1.5174 2.97357,-1.967 1.109,-0.4498 2.2902,-0.6745 3.54652,-0.6745 1.23134,0 2.39816,0.227 3.50088,0.6832 1.10144,0.4566 2.10217,1.1201 3.00177,1.9957 0.87316,0.8487 1.53919,1.8246 1.99322,2.9273 0.45615,1.1029 0.68423,2.2683 0.68423,3.4998 0,1.2313 -0.22808,2.3926 -0.68423,3.4821 -0.45403,1.0897 -1.12006,2.0582 -1.99322,2.9081 -0.8996,0.8856 -1.90604,1.5649 -3.02166,2.0328 -1.11329,0.4665 -2.27482,0.7004 -3.48099,0.7004 -1.24341,0 -2.42208,-0.2291 -3.53659,-0.6922 -1.11456,-0.4599 -2.10895,-1.1213 -2.9835,-1.9842 -0.87422,-0.8872 -1.5391,-1.8736 -1.99529,-2.956 -0.45522,-1.0827 -0.68323,-2.2464 -0.68323,-3.491"
       style="fill:#4f4c4c;fill-opacity:1;fill-rule:nonzero;stroke:none"
       id="path34"
       inkscape:connector-curvature="0" />
    <path
       d="m 54.448906,1034.8918 c 0,-1.8972 -0.51751,-3.4234 -1.55231,-4.5802 -1.03352,-1.1573 -2.39499,-1.7358 -4.08122,-1.7358 -1.73658,0 -3.09021,0.5349 -4.06387,1.6069 -0.97153,1.0699 -1.45857,2.5675 -1.45857,4.4886 0,2.0433 0.48894,3.6197 1.46831,4.7273 0.97894,1.1082 2.3677,1.6624 4.16457,1.6624 1.72431,0 3.07584,-0.5461 4.05499,-1.6348 0.97915,-1.0895 1.4681,-2.6001 1.4681,-4.5344 z m 2.80776,-8.4969 0,16.6047 c 0,1.8362 -0.12334,3.1395 -0.36898,3.9179 -0.24648,0.7735 -0.65291,1.4706 -1.21928,2.0865 -0.78811,0.8499 -1.75224,1.482 -2.89177,1.9012 -1.13762,0.4192 -2.44725,0.6289 -3.92402,0.6289 -2.56192,0 -4.55979,-0.585 -5.99404,-1.755 -1.43424,-1.17 -2.183,-2.8259 -2.24414,-4.9692 l 3.25059,0 0,0.2226 c 0,1.2691 0.43774,2.2474 1.31196,2.9364 0.87336,0.6889 2.11106,1.0351 3.71244,1.0351 1.15836,0 2.14513,-0.1885 2.96349,-0.5639 0.82005,-0.3753 1.44546,-0.9311 1.87579,-1.6721 0.25855,-0.4193 0.44282,-0.9035 0.55432,-1.4577 0.11129,-0.5557 0.16588,-1.3487 0.16588,-2.3839 l 0,-2.8453 c -0.6527,1.2073 -1.50851,2.1353 -2.56743,2.782 -1.0587,0.6451 -2.24626,0.9685 -3.56498,0.9685 -2.42567,0 -4.37933,-0.8255 -5.86392,-2.4749 -1.4846,-1.651 -2.22574,-3.8428 -2.22574,-6.5763 0,-2.7572 0.7204,-4.9468 2.16015,-6.5647 1.44101,-1.6198 3.36864,-2.4299 5.78225,-2.4299 1.40357,0 2.63513,0.3165 3.69384,0.9519 1.05976,0.633 1.89631,1.5654 2.51177,2.7987 l 0,-3.1415 2.88182,0"
       style="fill:#4f4c4c;fill-opacity:1;fill-rule:nonzero;stroke:none"
       id="path36"
       inkscape:connector-curvature="0" />
    <path
       d="m 63.260446,1043.2969 0,-16.902 2.91757,0 0,16.902 -2.91757,0 z m -0.68465,-25.0475 c 0,-0.5784 0.20628,-1.0739 0.61885,-1.4865 0.41256,-0.413 0.91483,-0.618 1.50554,-0.618 0.57928,0 1.07521,0.2097 1.48756,0.6267 0.41172,0.4191 0.618,0.9233 0.618,1.5151 0,0.5784 -0.20311,1.0718 -0.60932,1.478 -0.4058,0.4062 -0.90595,0.6091 -1.49624,0.6091 -0.59071,0 -1.09298,-0.2029 -1.50554,-0.6091 -0.41257,-0.4062 -0.61885,-0.9106 -0.61885,-1.5153"
       style="fill:#4f4c4c;fill-opacity:1;fill-rule:nonzero;stroke:none"
       id="path38"
       inkscape:connector-curvature="0" />
    <path
       d="m 70.482016,1040.4516 2.4737,-1.663 c 0.46948,0.8992 1.05955,1.5736 1.77382,2.0237 0.7149,0.4485 1.55759,0.6728 2.53103,0.6728 0.94784,0 1.71416,-0.234 2.29915,-0.7004 0.585,-0.468 0.8776,-1.0839 0.8776,-1.8475 0,-0.5918 -0.20099,-1.0827 -0.60044,-1.4781 -0.40029,-0.3929 -1.08727,-0.7574 -2.05965,-1.0896 l -0.48006,-0.1655 c -4.11232,-1.417 -6.16858,-3.1898 -6.16858,-5.3206 0,-1.5019 0.55305,-2.7265 1.66126,-3.6745 1.10885,-0.9494 2.54965,-1.4231 4.32262,-1.4231 1.46471,0 2.72124,0.2926 3.76809,0.8776 1.0458,0.585 1.79667,1.4125 2.25303,2.4847 l -2.34569,1.4405 c -0.34402,-0.777 -0.85264,-1.373 -1.52396,-1.7921 -0.67131,-0.4193 -1.4499,-0.6288 -2.33702,-0.6288 -0.84925,0 -1.5413,0.238 -2.07721,0.7115 -0.53612,0.4739 -0.80355,1.0809 -0.80355,1.8207 0,1.0329 1.12091,1.9018 3.36082,2.6025 0.41912,0.1353 0.75235,0.2402 0.99798,0.3144 1.83496,0.5915 3.11307,1.2662 3.83347,2.024 0.7204,0.7573 1.08071,1.7571 1.08071,3.0018 0,1.5994 -0.56976,2.8945 -1.7095,3.8857 -1.13974,0.9913 -2.62645,1.4869 -4.46014,1.4869 -1.576,0 -2.91567,-0.2941 -4.01712,-0.8856 -1.10229,-0.5898 -1.98623,-1.4837 -2.65036,-2.678"
       style="fill:#4f4c4c;fill-opacity:1;fill-rule:nonzero;stroke:none"
       id="path40"
       inkscape:connector-curvature="0" />
    <path
       d="m 88.877336,1028.7787 -3.10228,0 0,-2.3838 3.10228,0 0,-6.8157 2.95608,0 0,6.8157 3.10228,0 0,2.3838 -3.10228,0 0,14.5182 -2.95608,0 0,-14.5182"
       style="fill:#4f4c4c;fill-opacity:1;fill-rule:nonzero;stroke:none"
       id="path42"
       inkscape:connector-curvature="0" />
    <path
       d="m 99.127146,1043.2969 0,-16.902 2.919264,0 0,16.902 -2.919264,0 z m -0.68338,-25.0475 c 0,-0.5784 0.20671,-1.0739 0.61948,-1.4865 0.41235,-0.413 0.91336,-0.618 1.504914,-0.618 0.57865,0 1.07415,0.2097 1.48672,0.6267 0.41256,0.4191 0.61884,0.9233 0.61884,1.5151 0,0.5784 -0.20289,1.0718 -0.61017,1.478 -0.40579,0.4062 -0.90362,0.6091 -1.49539,0.6091 -0.591554,0 -1.092564,-0.2029 -1.504914,-0.6091 -0.41277,-0.4062 -0.61948,-0.9106 -0.61948,-1.5153"
       style="fill:#4f4c4c;fill-opacity:1;fill-rule:nonzero;stroke:none"
       id="path44"
       inkscape:connector-curvature="0" />
    <path
       d="m 119.59439,1039.2881 0,3.3605 c -0.76378,0.4566 -1.62213,0.7995 -2.5761,1.0254 -0.95504,0.2275 -1.98666,0.3412 -3.09445,0.3412 -2.60995,0 -4.71255,-0.8271 -6.30822,-2.4813 -1.59398,-1.6576 -2.39077,-3.8344 -2.39077,-6.5308 0,-2.7094 0.82535,-4.9232 2.47476,-6.641 1.64941,-1.7181 3.76175,-2.5763 6.33425,-2.5763 0.93684,0 1.85146,0.098 2.74451,0.2952 0.89262,0.1982 1.73213,0.4864 2.52024,0.8685 l 0,3.102 c -0.73902,-0.4802 -1.50195,-0.8448 -2.29005,-1.0978 -0.78811,-0.2533 -1.58848,-0.3779 -2.40156,-0.3779 -1.8961,0 -3.41667,0.5941 -4.56169,1.7813 -1.14609,1.188 -1.71797,2.7686 -1.71797,4.7376 0,1.7356 0.57611,3.1895 1.72685,4.3607 1.15159,1.17 2.59556,1.7551 4.33109,1.7551 0.87464,0 1.73023,-0.156 2.56763,-0.4632 0.83825,-0.3087 1.71796,-0.7946 2.64148,-1.4592"
       style="fill:#4f4c4c;fill-opacity:1;fill-rule:nonzero;stroke:none"
       id="path46"
       inkscape:connector-curvature="0" />
    <path
       d="m 121.8288,1040.4516 2.47581,-1.663 c 0.46715,0.8992 1.05891,1.5736 1.77297,2.0237 0.71363,0.4485 1.55759,0.6728 2.53019,0.6728 0.94847,0 1.71478,-0.234 2.29978,-0.7004 0.58415,-0.468 0.87654,-1.0839 0.87654,-1.8475 0,-0.5918 -0.19845,-1.0827 -0.60044,-1.4781 -0.39945,-0.3929 -1.086,-0.7574 -2.0588,-1.0896 l -0.48027,-0.1655 c -4.11296,-1.417 -6.16943,-3.1898 -6.16943,-5.3206 0,-1.5019 0.55453,-2.7265 1.66337,-3.6745 1.10716,-0.9494 2.54775,-1.4231 4.32157,-1.4231 1.46619,0 2.72166,0.2926 3.76703,0.8776 1.04813,0.585 1.79921,1.4125 2.2543,2.4847 l -2.34591,1.4405 c -0.34465,-0.777 -0.85242,-1.373 -1.52374,-1.7921 -0.67004,-0.4193 -1.44948,-0.6288 -2.33575,-0.6288 -0.84946,0 -1.54278,0.238 -2.07827,0.7115 -0.53528,0.4739 -0.80355,1.0809 -0.80355,1.8207 0,1.0329 1.12006,1.9018 3.36188,2.6025 0.41806,0.1353 0.75129,0.2402 0.99798,0.3144 1.83348,0.5915 3.11074,1.2662 3.83135,2.024 0.72019,0.7573 1.0805,1.7571 1.0805,3.0018 0,1.5994 -0.56976,2.8945 -1.70802,3.8857 -1.13889,0.9913 -2.6256,1.4869 -4.46162,1.4869 -1.57515,0 -2.91419,-0.2941 -4.01669,-0.8856 -1.10166,-0.5898 -1.98476,-1.4837 -2.65078,-2.678"
       style="fill:#4f4c4c;fill-opacity:1;fill-rule:nonzero;stroke:none"
       id="path48"
       inkscape:connector-curvature="0" />
    <path
       d="m 152.74683,1043.2969 0,-27.0426 3.21356,0 0,23.9747 10.21512,0 0,3.0679 -13.42868,0"
       style="fill:#c4122e;fill-opacity:1;fill-rule:nonzero;stroke:none"
       id="path50"
       inkscape:connector-curvature="0" />
    <path
       d="m 169.84902,1043.2969 0,-16.902 2.92011,0 0,16.902 -2.92011,0 z m -0.68252,-25.0475 c 0,-0.5784 0.2048,-1.0739 0.61757,-1.4865 0.41278,-0.413 0.91484,-0.618 1.50639,-0.618 0.57844,0 1.07394,0.2097 1.48672,0.6267 0.41278,0.4191 0.62075,0.9233 0.62075,1.5151 0,0.5784 -0.20311,1.0718 -0.60932,1.478 -0.40961,0.4062 -0.9068,0.6091 -1.49815,0.6091 -0.59155,0 -1.09361,-0.2029 -1.50639,-0.6091 -0.41277,-0.4062 -0.61757,-0.9106 -0.61757,-1.5153"
       style="fill:#4f4c4c;fill-opacity:1;fill-rule:nonzero;stroke:none"
       id="path52"
       inkscape:connector-curvature="0" />
    <path
       d="m 184.42357,1044.3484 -8.36704,-17.9535 3.24997,0 5.08153,11.8023 5.09761,-11.8023 3.24995,0 -8.31202,17.9535"
       style="fill:#4f4c4c;fill-opacity:1;fill-rule:nonzero;stroke:none"
       id="path54"
       inkscape:connector-curvature="0" />
    <path
       d="m 196.00332,1043.2969 0,-16.902 2.92032,0 0,16.902 -2.92032,0 z m -0.68233,-25.0475 c 0,-0.5784 0.20459,-1.0739 0.61737,-1.4865 0.41277,-0.413 0.91483,-0.618 1.50639,-0.618 0.57865,0 1.07415,0.2097 1.48692,0.6267 0.41278,0.4191 0.61906,0.9233 0.61906,1.5151 0,0.5784 -0.20141,1.0718 -0.6108,1.478 -0.40643,0.4062 -0.90362,0.6091 -1.49518,0.6091 -0.59156,0 -1.09362,-0.2029 -1.50639,-0.6091 -0.41278,-0.4062 -0.61737,-0.9106 -0.61737,-1.5153"
       style="fill:#4f4c4c;fill-opacity:1;fill-rule:nonzero;stroke:none"
       id="path56"
       inkscape:connector-curvature="0" />
    <path
       d="m 205.01901,1043.2969 0,-16.902 2.82428,0 0,2.6045 c 0.72632,-1.0826 1.60224,-1.8906 2.62433,-2.4189 1.0221,-0.5306 2.20353,-0.7947 3.54574,-0.7947 1.99638,0 3.55144,0.5304 4.67277,1.5894 1.12133,1.0587 1.68199,2.5301 1.68199,4.4145 l 0,11.5072 -2.95777,0 0,-9.9571 c 0,-1.7117 -0.36179,-2.9827 -1.08113,-3.8142 -0.71935,-0.8294 -1.83011,-1.2468 -3.33141,-1.2468 -0.86301,0 -1.64793,0.1574 -2.35628,0.4718 -0.70854,0.3146 -1.29354,0.7595 -1.76323,1.3384 -0.35586,0.4431 -0.61419,0.9497 -0.76695,1.5151 -0.15444,0.5674 -0.23083,1.552 -0.23083,2.9558 l 0,8.737 -2.86151,0"
       style="fill:#4f4c4c;fill-opacity:1;fill-rule:nonzero;stroke:none"
       id="path58"
       inkscape:connector-curvature="0" />
    <path
       d="m 239.02451,1034.8918 c 0,-1.8972 -0.51835,-3.4234 -1.55505,-4.5802 -1.03247,-1.1573 -2.39287,-1.7358 -4.08122,-1.7358 -1.73488,0 -3.09106,0.5349 -4.06217,1.6069 -0.97323,1.0699 -1.46197,2.5675 -1.46197,4.4886 0,2.0433 0.49086,3.6197 1.47043,4.7273 0.97746,1.1082 2.36748,1.6624 4.16373,1.6624 1.72643,0 3.07414,-0.5461 4.05583,-1.6348 0.97746,-1.0895 1.47042,-2.6001 1.47042,-4.5344 z m 2.80545,-8.4969 0,16.6047 c 0,1.8362 -0.12272,3.1395 -0.37025,3.9179 -0.24543,0.7735 -0.65376,1.4706 -1.21866,2.0865 -0.78916,0.8499 -1.75181,1.482 -2.89219,1.9012 -1.13825,0.4192 -2.44576,0.6289 -3.92253,0.6289 -2.56214,0 -4.56149,-0.585 -5.99595,-1.755 -1.43446,-1.17 -2.17919,-2.8259 -2.24265,-4.9692 l 3.24974,0 0,0.2226 c 0,1.2691 0.43795,2.2474 1.31174,2.9364 0.87591,0.6889 2.1136,1.0351 3.71308,1.0351 1.1573,0 2.14322,-0.1885 2.96413,-0.5639 0.81878,-0.3753 1.44291,-0.9311 1.87664,-1.6721 0.25812,-0.4193 0.44219,-0.9035 0.5522,-1.4577 0.11213,-0.5557 0.16925,-1.3487 0.16925,-2.3839 l 0,-2.8453 c -0.65376,1.2073 -1.51061,2.1353 -2.56847,2.782 -1.05998,0.6451 -2.24902,0.9685 -3.56499,0.9685 -2.42673,0 -4.38165,-0.8255 -5.86688,-2.4749 -1.48523,-1.651 -2.22362,-3.8428 -2.22362,-6.5763 0,-2.7572 0.71934,-4.9468 2.16014,-6.5647 1.44293,-1.6198 3.37034,-2.4299 5.78014,-2.4299 1.40485,0 2.63619,0.3165 3.69616,0.9519 1.05786,0.633 1.89569,1.5654 2.51137,2.7987 l 0,-3.1415 2.8816,0"
       style="fill:#4f4c4c;fill-opacity:1;fill-rule:nonzero;stroke:none"
       id="path60"
       inkscape:connector-curvature="0" />
    <path
       d="m 259.13653,1043.2969 0,-27.0426 3.21378,0 0,23.9747 10.21468,0 0,3.0679 -13.42846,0"
       style="fill:#c4122e;fill-opacity:1;fill-rule:nonzero;stroke:none"
       id="path62"
       inkscape:connector-curvature="0" />
    <path
       d="m 288.3567,1035.0031 c 0,-1.908 -0.52046,-3.445 -1.5614,-4.6086 -1.04094,-1.1639 -2.39711,-1.7467 -4.07276,-1.7467 -1.73489,0 -3.08894,0.5369 -4.06217,1.6069 -0.97534,1.072 -1.45985,2.5673 -1.45985,4.4882 0,2.0459 0.48873,3.6223 1.46619,4.7288 0.97958,1.1099 2.36962,1.664 4.16797,1.664 1.72431,0 3.07414,-0.5395 4.05159,-1.6185 0.97958,-1.0757 1.47043,-2.582 1.47043,-4.5141 z m 2.80756,-8.6082 0,16.902 -2.80756,0 0,-3.0679 c -0.67702,1.2317 -1.54447,2.1709 -2.59598,2.8177 -1.05364,0.6451 -2.23209,0.9685 -3.53536,0.9685 -2.42674,0 -4.38165,-0.8336 -5.86477,-2.5025 -1.48524,-1.6673 -2.22574,-3.8745 -2.22574,-6.6209 0,-2.7833 0.71934,-4.9972 2.16226,-6.6393 1.43868,-1.6435 3.364,-2.4667 5.78014,-2.4667 1.41541,0 2.64253,0.3165 3.68347,0.9519 1.04092,0.633 1.88087,1.5785 2.52404,2.8336 l 0,-3.1764 2.8795,0"
       style="fill:#4f4c4c;fill-opacity:1;fill-rule:nonzero;stroke:none"
       id="path64"
       inkscape:connector-curvature="0" />
    <path
       d="m 299.69906,1034.9289 c 0,1.9692 0.50354,3.5085 1.51275,4.6175 1.00919,1.1083 2.3971,1.6641 4.15526,1.6641 1.72431,0 3.07626,-0.5899 4.05372,-1.7648 0.97745,-1.1767 1.47043,-2.8051 1.47043,-4.8858 0,-1.8469 -0.48028,-3.2944 -1.44082,-4.3399 -0.96053,-1.048 -2.2892,-1.5722 -3.99023,-1.5722 -1.72432,0 -3.11435,0.5767 -4.1722,1.727 -1.05998,1.1529 -1.58891,2.67 -1.58891,4.5541 z m -2.75466,-20.262 2.86468,0 0,14.9044 c 0.65376,-1.2551 1.4937,-2.2006 2.5304,-2.8336 1.03459,-0.6354 2.24689,-0.9519 3.63904,-0.9519 2.4246,0 4.36048,0.8252 5.80552,2.4756 1.44927,1.6505 2.17285,3.8599 2.17285,6.6304 0,2.7464 -0.73839,4.9536 -2.21728,6.6209 -1.47676,1.6689 -3.43381,2.5025 -5.87323,2.5025 -1.3054,0 -2.49231,-0.3266 -3.56498,-0.9864 -1.07056,-0.6597 -1.938,-1.5924 -2.60234,-2.7998 l 0,3.0679 -2.75466,0 0,-28.63"
       style="fill:#4f4c4c;fill-opacity:1;fill-rule:nonzero;stroke:none"
       id="path66"
       inkscape:connector-curvature="0" />
    <path
       d="m 156.25913,982.6728 -36.10048,-22.46024 0,-43.60389 36.10048,23.07 0,42.99413"
       style="fill:#ffffff;fill-opacity:1;fill-rule:nonzero;stroke:none"
       id="path68"
       inkscape:connector-curvature="0" />
  </g>
</svg>
