<?xml version="1.0" encoding="UTF-8" standalone="no"?>
<svg
   xmlns:serif="http://www.serif.com/"
   xmlns:dc="http://purl.org/dc/elements/1.1/"
   xmlns:cc="http://creativecommons.org/ns#"
   xmlns:rdf="http://www.w3.org/1999/02/22-rdf-syntax-ns#"
   xmlns:svg="http://www.w3.org/2000/svg"
   xmlns="http://www.w3.org/2000/svg"
   xmlns:sodipodi="http://sodipodi.sourceforge.net/DTD/sodipodi-0.dtd"
   xmlns:inkscape="http://www.inkscape.org/namespaces/inkscape"
   inkscape:version="1.0 (4035a4f, 2020-05-01)"
   sodipodi:docname="logo.svg"
   id="svg35"
   style="fill-rule:evenodd;clip-rule:evenodd;stroke-linejoin:round;stroke-miterlimit:2;"
   xml:space="preserve"
   version="1.1"
   viewBox="0 0 2834 721"
   height="100%"
   width="100%"><metadata
     id="metadata41"><rdf:RDF><cc:Work
         rdf:about=""><dc:format>image/svg+xml</dc:format><dc:type
           rdf:resource="http://purl.org/dc/dcmitype/StillImage" /><dc:title></dc:title></cc:Work></rdf:RDF></metadata><defs
     id="defs39" /><sodipodi:namedview
     inkscape:current-layer="g33"
     inkscape:window-maximized="0"
     inkscape:window-y="25"
     inkscape:window-x="0"
     inkscape:cy="-481.20963"
     inkscape:cx="563.58728"
     inkscape:zoom="0.20465773"
     showgrid="false"
     id="namedview37"
     inkscape:window-height="1138"
     inkscape:window-width="1994"
     inkscape:pageshadow="2"
     inkscape:pageopacity="0"
     guidetolerance="10"
     gridtolerance="10"
     objecttolerance="10"
     borderopacity="1"
     bordercolor="#666666"
     pagecolor="#ffffff" /><rect
     style="fill:none;"
     height="720.644"
     width="2833.33"
     y="0.091"
     x="0.3"
     serif:id="smartador 303"
     id="smartador-303" /><g
     id="g33"><g
       id="g29"><path
         id="path11"
         style="fill:#f19f4d;fill-rule:nonzero;fill-opacity:1"
         d="M699.409,518.073c-18.243,-0 -36.064,-2.386 -53.465,-7.157c-17.401,-4.771 -31.294,-10.805 -41.678,-18.102l20.207,-39.994c10.104,6.736 22.243,12.138 36.416,16.208c14.173,4.069 28.136,6.104 41.888,6.104c31.434,0 47.151,-8.279 47.151,-24.838c-0,-7.859 -4,-13.331 -11.998,-16.419c-7.999,-3.087 -20.839,-6.034 -38.521,-8.84c-18.523,-2.807 -33.609,-6.035 -45.256,-9.683c-11.647,-3.649 -21.751,-10.034 -30.311,-19.155c-8.56,-9.121 -12.84,-21.821 -12.84,-38.099c-0,-21.33 8.911,-38.38 26.733,-51.15c17.821,-12.77 41.888,-19.155 72.199,-19.155c15.436,-0 30.872,1.754 46.308,5.262c15.437,3.508 28.066,8.209 37.889,14.103l-20.207,39.994c-19.085,-11.226 -40.555,-16.84 -64.411,-16.84c-15.436,0 -27.154,2.316 -35.153,6.947c-7.998,4.631 -11.998,10.735 -11.998,18.313c0,8.419 4.28,14.383 12.84,17.892c8.561,3.508 21.822,6.806 39.784,9.893c17.962,2.806 32.696,6.034 44.203,9.683c11.507,3.648 21.401,9.823 29.68,18.523c8.279,8.7 12.419,21.049 12.419,37.047c0,21.049 -9.121,37.889 -27.364,50.518c-18.243,12.63 -43.081,18.945 -74.515,18.945Z" /><path
         id="path13"
         style="fill:#f19f4d;fill-rule:nonzero;fill-opacity:1"
         d="M1114.92,287.793c28.346,-0 50.799,8.209 67.358,24.628c16.558,16.418 24.838,41.046 24.838,73.883l-0,128.822l-52.624,-0l0,-122.086c0,-19.646 -4.35,-34.451 -13.05,-44.415c-8.701,-9.963 -21.19,-14.945 -37.468,-14.945c-17.681,0 -31.855,5.824 -42.52,17.471c-10.665,11.648 -15.997,28.277 -15.997,49.887l-0,114.088l-52.624,-0l0,-122.086c0,-19.646 -4.35,-34.451 -13.05,-44.415c-8.701,-9.963 -21.19,-14.945 -37.468,-14.945c-17.962,0 -32.206,5.754 -42.73,17.261c-10.525,11.507 -15.787,28.206 -15.787,50.097l-0,114.088l-52.624,-0l0,-224.807l50.098,-0l-0,28.627c8.419,-10.104 18.944,-17.822 31.574,-23.154c12.629,-5.333 26.662,-7.999 42.098,-7.999c16.84,-0 31.785,3.157 44.836,9.472c13.05,6.315 23.364,15.647 30.942,27.996c9.262,-11.788 21.19,-20.98 35.784,-27.575c14.594,-6.596 30.732,-9.893 48.414,-9.893Z" /><path
         id="path15"
         style="fill:#f19f4d;fill-rule:nonzero;fill-opacity:1"
         d="M1480.76,290.319l-0,224.807l-50.098,-0l0,-29.048c-8.7,10.665 -19.435,18.664 -32.205,23.996c-12.77,5.333 -26.873,7.999 -42.31,7.999c-21.891,-0 -41.467,-4.771 -58.727,-14.314c-17.261,-9.542 -30.732,-23.014 -40.415,-40.415c-9.683,-17.4 -14.524,-37.608 -14.524,-60.622c-0,-23.014 4.841,-43.151 14.524,-60.411c9.683,-17.261 23.154,-30.662 40.415,-40.205c17.26,-9.542 36.836,-14.313 58.727,-14.313c14.595,-0 27.996,2.526 40.205,7.578c12.208,5.051 22.803,12.489 31.784,22.312l0,-27.364l52.624,-0Zm-118.719,182.708c19.366,0 35.363,-6.455 47.993,-19.365c12.629,-12.911 18.944,-29.89 18.944,-50.94c0,-21.049 -6.315,-38.029 -18.944,-50.939c-12.63,-12.91 -28.627,-19.366 -47.993,-19.366c-19.365,0 -35.293,6.456 -47.782,19.366c-12.489,12.91 -18.734,29.89 -18.734,50.939c0,21.05 6.245,38.029 18.734,50.94c12.489,12.91 28.417,19.365 47.782,19.365Z" /><path
         id="path17"
         style="fill:#f19f4d;fill-rule:nonzero;fill-opacity:1"
         d="M1584.33,323.156c15.155,-23.576 41.818,-35.363 79.987,-35.363l0,50.097c-4.49,-0.842 -8.56,-1.263 -12.209,-1.263c-20.488,0 -36.485,5.964 -47.992,17.892c-11.507,11.928 -17.261,29.119 -17.261,51.571l0,109.036l-52.623,-0l0,-224.807l50.098,-0l-0,32.837Z" /><path
         id="path19"
         style="fill:#f19f4d;fill-rule:nonzero;fill-opacity:1"
         d="M1819.66,502.917c-6.174,5.052 -13.682,8.841 -22.522,11.367c-8.841,2.526 -18.173,3.789 -27.996,3.789c-24.698,-0 -43.783,-6.455 -57.254,-19.366c-13.472,-12.91 -20.208,-31.714 -20.208,-56.412l0,-201.653l52.624,0l-0,51.361l60.201,-0l-0,42.098l-60.201,0l-0,106.931c-0,10.946 2.736,19.295 8.209,25.049c5.473,5.753 13.121,8.63 22.944,8.63c11.787,0 21.61,-3.087 29.469,-9.262l14.734,37.468Z" /><path
         id="path21"
         style="fill:#4484ce;fill-rule:nonzero;fill-opacity:1"
         d="M2059.62,290.319l0,224.807l-50.097,-0l-0,-29.048c-8.701,10.665 -19.436,18.664 -32.206,23.996c-12.77,5.333 -26.873,7.999 -42.309,7.999c-21.891,-0 -41.467,-4.771 -58.728,-14.314c-17.26,-9.542 -30.732,-23.014 -40.415,-40.415c-9.682,-17.4 -14.524,-37.608 -14.524,-60.622c0,-23.014 4.842,-43.151 14.524,-60.411c9.683,-17.261 23.155,-30.662 40.415,-40.205c17.261,-9.542 36.837,-14.313 58.728,-14.313c14.594,-0 27.996,2.526 40.204,7.578c12.209,5.051 22.804,12.489 31.785,22.312l-0,-27.364l52.623,-0Zm-118.718,182.708c19.365,0 35.363,-6.455 47.992,-19.365c12.63,-12.911 18.945,-29.89 18.945,-50.94c-0,-21.049 -6.315,-38.029 -18.945,-50.939c-12.629,-12.91 -28.627,-19.366 -47.992,-19.366c-19.366,0 -35.293,6.456 -47.782,19.366c-12.49,12.91 -18.734,29.89 -18.734,50.939c-0,21.05 6.244,38.029 18.734,50.94c12.489,12.91 28.416,19.365 47.782,19.365Z" /><path
         id="path23"
         style="fill:#4484ce;fill-rule:nonzero;fill-opacity:1"
         d="M2333.26,202.753l-0,312.373l-50.519,-0l0,-29.048c-8.7,10.665 -19.435,18.664 -32.205,23.996c-12.77,5.333 -26.873,7.999 -42.309,7.999c-21.611,-0 -41.047,-4.771 -58.307,-14.314c-17.261,-9.542 -30.802,-23.084 -40.625,-40.625c-9.823,-17.541 -14.735,-37.678 -14.735,-60.412c0,-22.733 4.912,-42.8 14.735,-60.201c9.823,-17.401 23.364,-30.872 40.625,-40.415c17.26,-9.542 36.696,-14.313 58.307,-14.313c14.875,-0 28.487,2.526 40.835,7.578c12.349,5.051 22.874,12.629 31.575,22.733l-0,-115.351l52.623,0Zm-118.718,270.274c12.629,0 23.996,-2.877 34.099,-8.63c10.104,-5.754 18.103,-13.963 23.997,-24.628c5.894,-10.665 8.84,-23.014 8.84,-37.047c0,-14.033 -2.946,-26.382 -8.84,-37.047c-5.894,-10.665 -13.893,-18.874 -23.997,-24.627c-10.103,-5.754 -21.47,-8.631 -34.099,-8.631c-12.63,0 -23.997,2.877 -34.1,8.631c-10.104,5.753 -18.103,13.962 -23.997,24.627c-5.894,10.665 -8.84,23.014 -8.84,37.047c-0,14.033 2.946,26.382 8.84,37.047c5.894,10.665 13.893,18.874 23.997,24.628c10.103,5.753 21.47,8.63 34.1,8.63Z" /><path
         id="path25"
         style="fill:#4484ce;fill-rule:nonzero;fill-opacity:1"
         d="M2487.76,518.073c-22.733,-0 -43.221,-4.912 -61.464,-14.735c-18.243,-9.823 -32.486,-23.505 -42.73,-41.046c-10.244,-17.541 -15.366,-37.398 -15.366,-59.57c-0,-22.172 5.122,-41.958 15.366,-59.359c10.244,-17.401 24.487,-31.013 42.73,-40.836c18.243,-9.823 38.731,-14.734 61.464,-14.734c23.014,-0 43.643,4.911 61.885,14.734c18.243,9.823 32.487,23.435 42.731,40.836c10.244,17.401 15.366,37.187 15.366,59.359c-0,22.172 -5.122,42.029 -15.366,59.57c-10.244,17.541 -24.488,31.223 -42.731,41.046c-18.242,9.823 -38.871,14.735 -61.885,14.735Zm0,-45.046c19.366,0 35.363,-6.455 47.993,-19.365c12.629,-12.911 18.944,-29.89 18.944,-50.94c0,-21.049 -6.315,-38.029 -18.944,-50.939c-12.63,-12.91 -28.627,-19.366 -47.993,-19.366c-19.365,0 -35.293,6.456 -47.782,19.366c-12.489,12.91 -18.734,29.89 -18.734,50.939c0,21.05 6.245,38.029 18.734,50.94c12.489,12.91 28.417,19.365 47.782,19.365Z" /><path
         id="path27"
         style="fill:#4484ce;fill-rule:nonzero;fill-opacity:1"
         d="M2692.78,323.156c15.156,-23.576 41.818,-35.363 79.988,-35.363l-0,50.097c-4.491,-0.842 -8.56,-1.263 -12.209,-1.263c-20.488,0 -36.486,5.964 -47.993,17.892c-11.506,11.928 -17.26,29.119 -17.26,51.571l0,109.036l-52.623,-0l-0,-224.807l50.097,-0l0,32.837Z" /></g><path
       id="path31"
       style="fill:#4484ce;fill-opacity:1"
       d="M113.605,283.976c-0,-0 97.501,-28.837 143.481,-42.436c14.899,-4.407 27.133,-15.094 33.5,-29.266c0.001,-0.001 0.001,-0.002 0.002,-0.004c12.823,-28.539 39.063,-48.779 69.923,-53.934c25.704,-4.293 56.727,-9.476 80.945,-13.521c25.938,-4.333 49.449,-17.859 66.233,-38.103c5.792,-6.986 10.251,-12.365 10.251,-12.365c0,-0 -9.828,22.712 -18.464,42.666c-8.21,18.973 -23.46,34.022 -42.539,41.981c-31.102,12.975 -75.439,31.47 -75.439,31.47l29.657,30.579c0,0 13.218,-5.352 28.594,-11.578c30.409,-12.312 55.822,-34.446 72.193,-62.877c-0,0 -0,-0 -0,-0c-0,-0 -0.174,1.968 -0.462,5.236c-3.529,40.011 -23.64,76.719 -55.461,101.23c-8.251,6.355 -14.18,10.922 -14.18,10.922l91.756,116.857l-51.926,58.32l-81.606,0l-119.108,-50.004l21.219,50.004l-74.574,167.326c0,0 -31.065,-18.689 -72.431,-43.575c-50.215,-30.209 -84.086,-81.496 -92.157,-139.539c-8.071,-58.043 10.524,-116.625 50.592,-159.388c0,-0.001 0.001,-0.001 0.001,-0.001Z" /></g></svg>
