<svg version="1.1" viewBox="0.0 0.0 165.88451443569554 167.9475065616798" fill="none" stroke="none" stroke-linecap="square" stroke-miterlimit="10" xmlns:xlink="http://www.w3.org/1999/xlink" xmlns="http://www.w3.org/2000/svg"><clipPath id="p.0"><path d="m0 0l165.88452 0l0 167.94751l-165.88452 0l0 -167.94751z" clip-rule="nonzero"/></clipPath><g clip-path="url(#p.0)"><path fill="#000000" fill-opacity="0.0" d="m0 0l165.88452 0l0 167.94751l-165.88452 0z" fill-rule="evenodd"/><path fill="#ffffff" d="m110.94157 116.28668l-19.811028 19.81102l0 0c-10.941322 10.94133 -33.24953 6.372513 -49.82677 -10.20472c-16.57724 -16.57724 -21.14605 -38.885445 -10.204723 -49.826775l19.811024 -19.811024z" fill-rule="evenodd"/><path stroke="#ffffff" stroke-width="1.0" stroke-linejoin="round" stroke-linecap="butt" d="m110.94157 116.28668l-19.811028 19.81102l0 0c-10.941322 10.94133 -33.24953 6.372513 -49.82677 -10.20472c-16.57724 -16.57724 -21.14605 -38.885445 -10.204723 -49.826775l19.811024 -19.811024z" fill-rule="evenodd"/><path fill="#ffffff" d="m103.19482 98.708435l-26.100845 26.100838l0 0c-3.419281 3.4192886 -7.587181 4.795128 -9.309265 3.0730515c-1.722084 -1.7220917 -0.34623718 -5.8899918 3.0730438 -9.309265l26.100845 -26.100845l0 0c3.419281 -3.419281 7.587181 -4.795128 9.309265 -3.0730438c1.722084 1.722084 0.34622955 5.889984 -3.0730438 9.309265z" fill-rule="evenodd"/><path stroke="#ffffff" stroke-width="1.0" stroke-linejoin="round" stroke-linecap="butt" d="m103.19482 98.708435l-26.100845 26.100838l0 0c-3.419281 3.4192886 -7.587181 4.795128 -9.309265 3.0730515c-1.722084 -1.7220917 -0.34623718 -5.8899918 3.0730438 -9.309265l26.100845 -26.100845l0 0c3.419281 -3.419281 7.587181 -4.795128 9.309265 -3.0730438c1.722084 1.722084 0.34622955 5.889984 -3.0730438 9.309265z" fill-rule="evenodd"/><path fill="#ffffff" d="m74.7178 70.23142l-26.100838 26.100838l0 0c-3.419281 3.419281 -7.587181 4.795128 -9.309265 3.0730438c-1.722084 -1.722084 -0.34623718 -5.889984 3.0730438 -9.309265l26.100838 -26.100838l0 0c3.419281 -3.419281 7.587181 -4.795128 9.309265 -3.0730438c1.7220917 1.722084 0.34623718 5.889984 -3.0730438 9.309265z" fill-rule="evenodd"/><path stroke="#ffffff" stroke-width="1.0" stroke-linejoin="round" stroke-linecap="butt" d="m74.7178 70.23142l-26.100838 26.100838l0 0c-3.419281 3.419281 -7.587181 4.795128 -9.309265 3.0730438c-1.722084 -1.722084 -0.34623718 -5.889984 3.0730438 -9.309265l26.100838 -26.100838l0 0c3.419281 -3.419281 7.587181 -4.795128 9.309265 -3.0730438c1.7220917 1.722084 0.34623718 5.889984 -3.0730438 9.309265z" fill-rule="evenodd"/><path fill="#ffffff" d="m55.147854 52.501385l19.29134 -19.29134l0 0c10.654312 -10.65431 32.729843 -5.852829 49.307083 10.724411c16.57724 16.57724 21.378723 38.65277 10.724411 49.307083l-19.291336 19.291344z" fill-rule="evenodd"/><path stroke="#ffffff" stroke-width="1.0" stroke-linejoin="round" stroke-linecap="butt" d="m55.147854 52.501385l19.29134 -19.29134l0 0c10.654312 -10.65431 32.729843 -5.852829 49.307083 10.724411c16.57724 16.57724 21.378723 38.65277 10.724411 49.307083l-19.291336 19.291344z" fill-rule="evenodd"/><path fill="#ffffff" d="m153.94113 5.0645566l2.7949982 -2.7949939l0 0c1.5436249 -1.5436324 4.2457733 -1.3442123 6.0354004 0.4454174c1.7896271 1.7896295 1.9890442 4.491772 0.4454193 6.035404l-2.7949982 2.7949944z" fill-rule="evenodd"/><path stroke="#ffffff" stroke-width="1.0" stroke-linejoin="round" stroke-linecap="butt" d="m153.94113 5.0645566l2.7949982 -2.7949939l0 0c1.5436249 -1.5436324 4.2457733 -1.3442123 6.0354004 0.4454174c1.7896271 1.7896295 1.9890442 4.491772 0.4454193 6.035404l-2.7949982 2.7949944z" fill-rule="evenodd"/><path fill="#ffffff" d="m95.168655 63.838516l58.77281 -58.772816l6.4808197 6.480822l-58.77281 58.77281z" fill-rule="evenodd"/><path stroke="#ffffff" stroke-width="1.0" stroke-linejoin="round" stroke-linecap="butt" d="m95.168655 63.838516l58.77281 -58.772816l6.4808197 6.480822l-58.77281 58.77281z" fill-rule="evenodd"/><path fill="#ffffff" d="m11.801146 162.34877l-2.7949934 2.7949982l0 0c-1.5436325 1.5436401 -4.245775 1.3442078 -6.0354047 -0.4454193c-1.7896296 -1.7896271 -1.9890497 -4.4917755 -0.4454174 -6.0354004l2.7949939 -2.7949982z" fill-rule="evenodd"/><path stroke="#ffffff" stroke-width="1.0" stroke-linejoin="round" stroke-linecap="butt" d="m11.801146 162.34877l-2.7949934 2.7949982l0 0c-1.5436325 1.5436401 -4.245775 1.3442078 -6.0354047 -0.4454193c-1.7896296 -1.7896271 -1.9890497 -4.4917755 -0.4454174 -6.0354004l2.7949939 -2.7949982z" fill-rule="evenodd"/><path fill="#ffffff" d="m70.573616 103.574814l-58.77281 58.77281l-6.480822 -6.4808197l58.772816 -58.77281z" fill-rule="evenodd"/><path stroke="#ffffff" stroke-width="1.0" stroke-linejoin="round" stroke-linecap="butt" d="m70.573616 103.574814l-58.77281 58.77281l-6.480822 -6.4808197l58.772816 -58.77281z" fill-rule="evenodd"/></g></svg>