<?xml version="1.0" standalone="yes"?>

<svg version="1.1" viewBox="0.0 0.0 165.88451443569554 167.9475065616798" fill="none" stroke="none" stroke-linecap="square" stroke-miterlimit="10" xmlns="http://www.w3.org/2000/svg" xmlns:xlink="http://www.w3.org/1999/xlink"><clipPath id="p.0"><path d="m0 0l165.88452 0l0 167.94751l-165.88452 0l0 -167.94751z" clip-rule="nonzero"></path></clipPath><g clip-path="url(#p.0)"><path fill="#000000" fill-opacity="0.0" d="m0 0l165.88452 0l0 167.94751l-165.88452 0z" fill-rule="evenodd"></path><path fill="#ff0000" d="m100.7837 127.13668l-19.291336 19.291344l0 0c-10.654312 10.654312 -32.729847 5.852829 -49.307087 -10.724411c-16.57724 -16.57724 -21.378723 -38.65278 -10.724411 -49.30709l19.29134 -19.291336z" fill-rule="evenodd"></path><path stroke="#ff0000" stroke-width="1.0" stroke-linejoin="round" stroke-linecap="butt" d="m100.7837 127.13668l-19.291336 19.291344l0 0c-10.654312 10.654312 -32.729847 5.852829 -49.307087 -10.724411c-16.57724 -16.57724 -21.378723 -38.65278 -10.724411 -49.30709l19.29134 -19.291336z" fill-rule="evenodd"></path><path fill="#ff0000" d="m103.46463 99.23399l-26.100838 26.100838l0 0c-3.419281 3.4192886 -7.587181 4.795128 -9.309265 3.0730515c-1.722084 -1.7220917 -0.34623718 -5.8899918 3.0730438 -9.309273l26.100838 -26.100838l0 0c3.419281 -3.419281 7.587181 -4.795128 9.309265 -3.0730438c1.722084 1.722084 0.34623718 5.889984 -3.0730438 9.309265z" fill-rule="evenodd"></path><path stroke="#ff0000" stroke-width="1.0" stroke-linejoin="round" stroke-linecap="butt" d="m103.46463 99.23399l-26.100838 26.100838l0 0c-3.419281 3.4192886 -7.587181 4.795128 -9.309265 3.0730515c-1.722084 -1.7220917 -0.34623718 -5.8899918 3.0730438 -9.309273l26.100838 -26.100838l0 0c3.419281 -3.419281 7.587181 -4.795128 9.309265 -3.0730438c1.722084 1.722084 0.34623718 5.889984 -3.0730438 9.309265z" fill-rule="evenodd"></path><path fill="#ff0000" d="m74.98762 70.75698l-26.100842 26.100838l0 0c-3.4192772 3.419281 -7.5871773 4.795128 -9.309265 3.0730438c-1.722084 -1.722084 -0.34623337 -5.889984 3.0730476 -9.309265l26.100838 -26.100838l0 0c3.419281 -3.419281 7.587181 -4.7951317 9.309265 -3.0730438c1.722084 1.722084 0.34623718 5.889984 -3.0730438 9.309265z" fill-rule="evenodd"></path><path stroke="#ff0000" stroke-width="1.0" stroke-linejoin="round" stroke-linecap="butt" d="m74.98762 70.75698l-26.100842 26.100838l0 0c-3.4192772 3.419281 -7.5871773 4.795128 -9.309265 3.0730438c-1.722084 -1.722084 -0.34623337 -5.889984 3.0730476 -9.309265l26.100838 -26.100838l0 0c3.419281 -3.419281 7.587181 -4.7951317 9.309265 -3.0730438c1.722084 1.722084 0.34623718 5.889984 -3.0730438 9.309265z" fill-rule="evenodd"></path><path fill="#ff0000" d="m69.52826 38.266785l19.286568 -19.28657l0 0c10.65168 -10.651679 32.727486 -5.8456545 49.3077 10.734556c16.5802 16.580212 21.38623 38.656017 10.734558 49.307697l-19.286575 19.286568z" fill-rule="evenodd"></path><path stroke="#ff0000" stroke-width="1.0" stroke-linejoin="round" stroke-linecap="butt" d="m69.52826 38.266785l19.286568 -19.28657l0 0c10.65168 -10.651679 32.727486 -5.8456545 49.3077 10.734556c16.5802 16.580212 21.38623 38.656017 10.734558 49.307697l-19.286575 19.286568z" fill-rule="evenodd"></path><path fill="#ff0000" d="m154.21095 5.5901146l2.794983 -2.7949939l0 0c1.5436401 -1.5436324 4.2457733 -1.3442123 6.0354156 0.4454174c1.7896271 1.7896295 1.9890442 4.491772 0.44540405 6.0354047l-2.794983 2.7949934z" fill-rule="evenodd"></path><path stroke="#ff0000" stroke-width="1.0" stroke-linejoin="round" stroke-linecap="butt" d="m154.21095 5.5901146l2.794983 -2.7949939l0 0c1.5436401 -1.5436324 4.2457733 -1.3442123 6.0354156 0.4454174c1.7896271 1.7896295 1.9890442 4.491772 0.44540405 6.0354047l-2.794983 2.7949934z" fill-rule="evenodd"></path><path fill="#ff0000" d="m95.43848 64.364075l58.77281 -58.772816l6.4808197 6.4808216l-58.77281 58.77281z" fill-rule="evenodd"></path><path stroke="#ff0000" stroke-width="1.0" stroke-linejoin="round" stroke-linecap="butt" d="m95.43848 64.364075l58.77281 -58.772816l6.4808197 6.4808216l-58.77281 58.77281z" fill-rule="evenodd"></path><path fill="#ff0000" d="m12.070965 162.87433l-2.7949944 2.7949982l0 0c-1.543632 1.5436249 -4.2457747 1.3442078 -6.035404 -0.4454193c-1.7896297 -1.7896271 -1.9890498 -4.4917755 -0.4454174 -6.0354004l2.7949939 -2.7949982z" fill-rule="evenodd"></path><path stroke="#ff0000" stroke-width="1.0" stroke-linejoin="round" stroke-linecap="butt" d="m12.070965 162.87433l-2.7949944 2.7949982l0 0c-1.543632 1.5436249 -4.2457747 1.3442078 -6.035404 -0.4454193c-1.7896297 -1.7896271 -1.9890498 -4.4917755 -0.4454174 -6.0354004l2.7949939 -2.7949982z" fill-rule="evenodd"></path><path fill="#ff0000" d="m70.84344 104.10037l-58.772816 58.77281l-6.4808216 -6.4808197l58.77282 -58.77281z" fill-rule="evenodd"></path><path stroke="#ff0000" stroke-width="1.0" stroke-linejoin="round" stroke-linecap="butt" d="m70.84344 104.10037l-58.772816 58.77281l-6.4808216 -6.4808197l58.77282 -58.77281z" fill-rule="evenodd"></path></g></svg>

