<?xml version="1.0" encoding="UTF-8" standalone="no"?>
<!DOCTYPE svg PUBLIC "-//W3C//DTD SVG 1.1//EN" "http://www.w3.org/Graphics/SVG/1.1/DTD/svg11.dtd">
<svg
        xmlns="http://www.w3.org/2000/svg"
        version="1.1"
        viewBox="0 0 155.02162 266.72723"
        width="155.02162"
        height="266.72723"
        id="svg3604">
  <defs id="defs3606" />
  <rect
          width="155.02162"
          height="266.69324"
          x="0"
          y="0"
          id="rect25"
          style="fill:#ffffff;fill-rule:evenodd;"
  />
  <path
          d="m 0,9.4e-5 0,192.342246 c 1.55426,4.89987 1.72267,7.08261 5.52741,11.29003 0.87122,2.06984 1.97435,3.4651 3.58694,5.057 0.96906,0.95589 2.98622,3.42794 3.76335,4.41017 0.71691,0.90885 1.69491,2.99374 2.29329,3.76334 2.93352,3.77088 4.29727,4.40594 7.70309,6.93867 2.06044,1.51851 3.41994,3.1551 6.23305,4.17497 2.82062,0.5645 5.04194,3.00409 7.40908,4.35136 0.84299,0.47983 2.12535,1.31247 2.70491,1.99928 1.25507,1.49405 1.19862,3.76146 3.05772,3.99856 0.85616,0.10725 1.70479,-0.62143 2.5873,-0.76443 1.26824,-0.2258 3.06007,-0.4676 4.76298,-0.35282 0.99917,0.0753 2.07266,0.56309 3.17532,0.76443 2.3408,0.42526 3.46934,0.32459 4.88059,1.99928 3.37761,-0.77901 5.20283,1.0702 6.58586,2.76371 l 3.64574,0 c 0.52499,-0.19005 0.40174,-1.00199 1.05844,-1.05844 3.53566,-0.32365 7.29666,-1.52369 10.99603,-1.82288 1.08572,-0.0941 2.30928,0.13737 3.35172,0 0.74327,-0.10725 1.50111,-0.8284 2.29329,-0.76442 0.65859,0.0489 1.2038,0.78795 1.82287,0.88203 2.47064,0.37633 6.19635,-2.62117 8.23232,-3.05772 0.58144,-0.12419 1.22074,0.0602 1.82287,0 4.51037,-0.43655 8.94265,-2.73501 12.8189,-4.58658 3.02949,-1.44888 5.74992,-2.84132 8.64393,-4.23376 0.97659,-0.47606 2.19027,-0.70233 3.05772,-1.23485 1.30024,-0.81288 2.27542,-2.38784 3.35173,-3.52813 1.67093,-1.76125 2.69174,-3.58694 5.057,-4.52778 6.30925,-7.50223 9.87314,-17.78369 13.40692,-28.69551 0.22956,-0.70751 0.45019,-1.5632 0.76443,-2.29329 0.46853,-1.0989 1.13512,-1.50628 1.23484,-3.17532 0.22957,-4.04372 -0.30671,-8.20363 -0.47041,-12.64249 -0.11479,-2.96176 0.37022,-6.00536 0.17631,-8.58513 -0.15994,-2.03597 -0.93707,-3.97645 -0.94084,-5.93903 -0.002,-0.54004 0.21592,-1.11207 0.17632,-1.64646 -0.0734,-1.06879 -0.75832,-2.3742 -0.94084,-3.70455 -0.13172,-0.89191 0.0837,-1.84968 -0.11761,-2.5873 -0.22391,-0.79595 -1.01422,-1.29647 -1.41125,-2.11688 -0.77337,-1.56931 -1.3882,-3.55025 -2.29329,-5.35101 -0.8618,-1.71044 -2.05761,-3.27787 -2.7049,-4.70418 -0.63036,-1.39244 -0.47136,-2.91847 -2.4697,-3.05772 -1.17793,-1.74619 -3.20919,-2.79946 -4.58658,-4.41017 -0.37069,-0.43655 -0.40691,-1.04715 -0.76443,-1.52886 -1.07819,-1.42819 -3.04642,-2.98574 -4.70418,-4.41017 -1.72549,-1.48464 -3.35455,-3.3442 -4.88059,-4.29256 -0.59272,-0.36881 -1.52368,-0.34482 -2.29329,-0.76443 -1.07067,-0.5758 -1.81722,-1.67234 -2.7637,-2.29329 -2.94106,-1.93248 -6.54917,-2.93541 -10.46681,-4.23377 -2.42171,-0.79971 -4.96856,-1.66104 -7.64429,-2.29328 -3.09347,-0.72633 -6.12673,-1.15206 -9.64358,-1.70527 -0.76584,-0.12419 -1.61494,-0.59931 -2.41089,-0.58802 -1.00293,0.007 -2.69362,0.87921 -4.11616,1.23484 -3.88942,0.96718 -6.48142,1.77348 -10.2316,2.70491 -6.47671,1.62388 -10.72036,3.99902 -15.81781,7.35028 -3.01632,1.97576 -6.96924,4.41535 -8.87914,6.70346 -1.84592,2.20909 -3.68197,4.73335 -5.35101,7.17388 -1.70103,2.48569 -3.14992,5.12615 -4.23376,8.05591 -0.0941,0.41397 -0.79313,0.2258 -1.05844,0.47042 -0.5551,5.24987 -2.71102,10.43482 -2.76371,15.87662 -0.0207,2.21661 -0.0546,4.98737 0.47042,7.17387 0.23709,0.96342 0.98552,1.6427 1.35245,2.5873 1.20991,3.11793 0.91637,6.41368 2.11688,9.29076 1.5298,3.67679 5.18824,7.3644 7.8207,10.52561 0.8938,1.06502 1.66246,2.47675 2.70491,3.35173 1.37174,1.13653 3.40065,2.03973 5.2334,3.05771 5.58292,3.11229 12.62038,7.25526 20.6984,5.58622 1.23626,0.69622 2.75007,1.35245 4.58658,1.11724 1.06691,-0.13548 1.83463,-1.27906 3.05772,-1.82287 0.83546,-0.37069 3.27035,-1.24378 4.23376,-1.41125 0.55886,-0.0941 1.33223,0.15241 1.88168,0 1.65963,-0.45913 3.9087,-3.34326 4.99819,-4.41017 4.06629,-1.81958 7.04969,-5.67983 8.82034,-9.76118 0.58144,-1.33599 0.69293,-2.77029 1.23485,-4.29257 0.34999,-0.96341 1.27765,-1.78617 1.41125,-2.88131 0.175,-1.42442 -0.27049,-1.65728 -0.17631,-2.7637 0.0771,-0.83359 0.41209,-1.13654 0.47042,-1.64647 0.37821,-2.92224 -0.57673,-6.29561 -1.52886,-8.40872 -0.23333,-0.52687 -0.76114,-0.95495 -1.05844,-1.52886 -0.60026,-1.09701 -0.85522,-2.14087 -1.52886,-2.99892 -1.99081,-2.55907 -4.07947,-3.66032 -7.05627,-4.76298 -4.86037,-1.81958 -14.5284,0.31471 -12.93651,5.93903 0.59273,2.0943 2.92224,1.9687 4.70419,3.35173 2.54214,1.9814 2.9895,6.63572 2.29329,11.17243 -0.22769,1.49593 -1.18358,1.94141 -2.11689,2.99891 -1.4884,1.69163 -1.35057,1.81676 -3.93975,2.4697 -3.45475,0.86745 -4.93704,1.46582 -8.40872,0.47042 -1.20051,-0.33494 -2.55767,-0.3721 -3.35173,-0.64683 -1.76125,-0.6153 -4.68396,-3.48533 -5.93903,-4.99819 -0.76208,-0.91073 -1.47147,-2.12112 -2.11689,-3.35173 -1.55049,-2.97116 -2.56754,-4.54048 -2.94011,-9.17315 -0.30483,-3.7577 -0.34717,-6.14319 1.05844,-9.58477 0.95213,-2.33892 1.79888,-4.86648 3.05772,-6.40945 2.12253,-2.59106 5.22917,-3.6989 6.58585,-6.99747 3.93835,-0.99917 6.7077,-3.18614 10.05519,-4.76299 2.27495,0.70375 4.52825,-1.33081 6.23304,0.17632 0.59461,-0.16559 0.25685,-1.28377 1.05845,-1.23485 5.97054,-0.18252 11.64002,-0.0301 15.28859,2.11688 0.58143,0.0847 0.71833,-0.24367 1.35245,-0.1176 0.49488,0.66046 1.49217,0.6106 2.11688,1.05844 0.78466,0.57579 1.12101,1.7062 1.82287,2.29329 1.14594,0.95212 2.63011,1.36515 3.70455,1.99927 2.16956,1.27013 4.10816,3.45758 5.46861,5.76263 0.91637,1.56179 1.47382,3.76522 3.35173,4.70418 0.15241,1.33411 0.32882,2.51062 0.88203,3.82215 0.43467,1.03492 1.39856,1.77771 1.70527,2.7637 0.60966,2.00022 0.40126,4.70701 0.76443,7.17388 0.20322,1.31717 1.07726,2.90248 1.05844,4.11616 -0.0113,0.93331 -0.72586,1.98987 -0.88204,3.17532 -0.27472,2.16392 0.10444,4.54988 -0.35281,6.11544 -0.50429,1.71232 -1.87085,3.11934 -2.41089,4.88059 -0.96718,3.16685 -1.38633,6.25279 -2.76371,8.70273 -1.13465,2.03974 -2.99845,3.95057 -4.58658,5.76263 -1.6013,1.83086 -3.63633,3.20401 -5.2922,4.88058 -0.90509,0.92014 -1.47429,2.14982 -2.4697,2.94012 -1.10266,0.87874 -2.73219,1.41972 -4.23376,2.23449 -1.39056,0.75455 -2.6701,1.91977 -3.99856,2.6461 -1.19862,0.6567 -3.02949,1.15299 -4.70418,1.82287 -1.50157,0.59837 -3.35267,1.99457 -4.41017,2.11688 -1.46582,0.18064 -3.77228,-0.7856 -5.82142,-0.58802 -2.89402,0.27284 -5.63373,1.98516 -7.76191,2.11688 -1.60506,0.1129 -2.425,-0.58849 -3.23412,-1.35245 -1.30588,-0.009 -1.9353,-0.35282 -3.17532,0.1176 -0.91261,-0.31988 -1.25508,-1.40937 -2.11689,-1.64646 -0.99916,-0.26908 -2.34691,0.14112 -3.35173,0 -3.57706,-0.493 -7.07273,-3.16592 -10.5256,-4.58658 -2.54779,-1.04621 -4.99537,-1.54721 -5.82143,-4.29257 -5.27621,-2.75288 -9.91688,-6.10791 -11.11363,-12.9365 -0.57203,-0.37633 -1.46018,-0.0132 -2.11688,0 -0.318,-0.32929 0.20792,-0.67222 0.1176,-1.23484 -1.89108,-0.71128 -1.93624,-3.2346 -4.23376,-3.52814 -0.0715,-0.74514 0.68634,-1.18546 0.41162,-1.64647 -1.59754,-3.34937 -3.14287,-7.40391 -4.52778,-11.46644 -0.43467,-1.27577 -1.25884,-2.58918 -1.41125,-3.76334 -0.26156,-2.00775 0.56262,-4.42758 0.47041,-6.58586 -0.0489,-1.19674 -0.13736,-3.32867 -0.47041,-4.23376 -0.16371,-0.45348 -0.59743,-0.37492 -0.58803,-0.76443 0.0471,-7.18046 1.57779,-13.38528 3.64574,-18.93433 0.94272,-2.53085 2.45277,-4.94974 3.64575,-7.6443 2.50074,-5.63749 5.65489,-9.30158 10.408,-12.76009 0.75455,-0.55133 1.65211,-1.10313 2.11688,-1.70527 0.29542,-0.3895 0.35611,-1.20756 0.76443,-1.82287 0.28601,-0.40644 1.14547,-1.10689 1.82287,-1.70526 2.15263,-1.91931 4.15426,-3.12923 7.46789,-4.70419 3.80098,-1.80264 7.68146,-3.86636 11.58405,-5.82142 2.4744,-1.24191 5.3082,-3.19273 8.23232,-3.469336 0.58332,-0.04704 1.22638,0.117605 1.82287,0.117605 5.18777,0.01129 10.35202,-1.996455 15.40619,-2.116882 3.60717,-0.08279 7.48154,0.19099 10.81962,0.588023 1.92307,0.233327 3.72713,1.38444 5.35101,0.646825 1.37362,1.315289 3.33197,1.068319 4.88059,1.82287 0.95024,0.468535 1.55473,1.386325 2.41089,1.822875 0.43843,0.22203 1.0321,0.24838 1.52886,0.47041 0.44596,0.21451 0.84158,0.63836 1.23485,0.76443 0.62472,0.20887 1.35763,0.0551 1.99928,0.29401 0.76772,0.27473 1.30588,1.0815 2.11688,1.35246 0.88439,0.28789 1.97434,0.0311 2.88131,0.35281 1.24943,0.4309 2.60659,2.70208 5.2334,2.11688 0.91261,1.62012 2.22555,2.81969 4.41017,3.17533 -0.0771,0.68492 0.0442,1.17087 0.11761,1.70526 1.38115,1.24943 3.25764,1.10031 4.76298,1.82287 1.33223,0.62848 2.94012,2.40008 4.11616,3.64574 3.7276,3.94775 7.04687,8.84998 10.3492,12.99531 l 0,1.52886 c 1.14406,0.93142 1.4122,2.1484 1.99928,3.46933 0.54945,1.23814 1.55332,2.2693 2.4697,3.29293 L 155,0 844.98862,0 z m 10.408,9.173155 10.87842,0 c 6.06275,0 10.56089,0.508522 13.52453,1.470057 2.95799,0.961535 5.52365,2.581185 7.64429,4.880589 1.88168,2.000218 3.26235,4.325025 4.17496,6.938668 0.91073,2.619289 1.41126,5.571163 1.41126,8.879144 0,3.35126 -0.49864,6.309249 -1.41126,8.937946 -0.91073,2.623052 -2.29328,4.940332 -4.17496,6.938669 -2.13946,2.305049 -4.71124,3.919054 -7.7031,4.880589 -2.99374,0.961535 -7.48576,1.470057 -13.46572,1.470057 l -10.87842,0 0,-44.395719 z m 38.45669,0 9.87878,0 6.87987,32.28245 6.82106,-32.28245 9.93759,0 6.87986,32.28245 6.87987,-32.28245 9.81998,0 -9.46717,44.395719 -11.87805,0 -7.23269,-33.752507 -7.17387,33.752507 -11.87806,0 -9.46717,-44.395719 z m 61.33078,0 10.87842,0 c 6.06275,0 10.62157,0.508522 13.58332,1.470057 2.95987,0.961535 5.46673,2.581185 7.5855,4.880589 1.88167,2.000218 3.26423,4.325025 4.17496,6.938668 0.91073,2.619289 1.41125,5.571163 1.41125,8.879144 0,3.35126 -0.49864,6.309249 -1.41125,8.937946 -0.90885,2.623052 -2.29329,4.940332 -4.17496,6.938669 -2.13758,2.305049 -4.71124,3.919054 -7.7031,4.880589 -2.98998,0.961535 -7.482,1.470057 -13.46572,1.470057 l -10.87842,0 0,-44.395719 z m -89.43827,8.643935 0,27.107849 3.64574,0 c 4.19802,0 7.42697,-1.151113 9.64358,-3.469334 2.22037,-2.318221 3.35173,-5.693942 3.35173,-10.113992 0,-4.393706 -1.14265,-7.755785 -3.35173,-10.055189 -2.20721,-2.299404 -5.42487,-3.469334 -9.64358,-3.469334 l -3.64574,0 z m 99.78747,0 0,27.107849 3.64574,0 c 4.19801,0 7.42696,-1.151113 9.64357,-3.469334 2.22037,-2.318221 3.35173,-5.693942 3.35173,-10.113992 0,-4.393706 -1.14265,-7.755785 -3.35173,-10.055189 -2.20908,-2.299404 -5.42486,-3.469334 -9.64357,-3.469334 l -3.64574,0 z m 34.45813,182.522266 c -0.85992,0.94083 -1.87179,1.86379 -2.29329,3.17532 -0.22392,0.70186 -0.1383,1.5378 -0.35281,2.17568 -0.66047,1.95882 -2.7877,4.04089 -3.64574,6.23304 -0.30295,0.76773 -0.28131,1.51475 -0.58803,2.11689 -0.5231,1.02739 -1.81722,2.02468 -2.7637,3.05771 -2.56096,2.78488 -4.30104,7.29055 -7.46789,9.76118 -1.22873,0.95965 -2.76512,1.76078 -4.11616,2.76371 -1.304,0.96718 -2.58401,2.1023 -3.82215,2.88131 -1.13277,0.70186 -2.52991,1.00717 -3.64574,1.70527 -1.14218,0.71127 -1.79559,2.01809 -2.88131,2.7049 -1.06879,0.67552 -2.90907,0.84581 -4.46898,1.52886 -1.23625,0.54569 -2.43018,1.51475 -3.64574,2.11688 -5.27056,2.63246 -11.2571,3.92141 -17.52308,5.64502 -3.19508,0.88062 -6.30548,2.25142 -9.17315,2.4697 -1.12524,0.0884 -2.34598,-0.0471 -3.46933,0 -2.94294,0.12983 -5.8299,0.63788 -8.52633,0.47041 -2.20909,-0.13736 -4.63174,-0.9413 -7.17388,-1.23484 -2.57225,-0.30107 -5.3162,0.54192 -7.82071,-0.47042 -1.52791,0.35375 -3.04831,0.70986 -4.70418,0.29401 -0.70562,-0.18064 -1.29929,-0.90132 -1.99927,-1.17605 -1.23815,-0.49299 -2.83474,-0.67599 -4.11616,-1.23484 -0.70563,-0.30483 -1.16993,-0.994 -1.82287,-1.23485 -0.81477,-0.3086 -1.81582,-0.2258 -2.5873,-0.47042 -1.78948,-0.57203 -3.24072,-1.50957 -4.9982,-1.94047 -3.78781,0.97094 -7.17717,-0.84864 -10.408,-1.41126 -2.13758,-2.29188 -6.10321,-3.16638 -7.17388,-6.52705 -1.10454,-0.76772 -1.50816,-1.43148 -2.7049,-1.82287 -0.71316,-0.23709 -1.08714,-0.92108 -1.82287,-1.05844 -2.7209,-0.50429 -4.54519,-2.22884 -6.70346,-4.11616 -1.64835,-1.44889 -3.88801,-2.23214 -5.23341,-3.82215 -0.89003,-1.0575 -1.62388,-2.71243 -2.5873,-4.11616 -1.47711,-2.1564 -3.19555,-4.37677 -4.76298,-6.58586 l 0,54.50972 155.0028,0 0,-66.38777 z"
          id="path35"
          style="fill:#2d4b9b;fill-rule:evenodd;"
  />
</svg>
