<?xml version="1.0" encoding="UTF-8" standalone="no"?>
<!-- Created with Inkscape (http://www.inkscape.org/) -->

<svg
   xmlns:dc="http://purl.org/dc/elements/1.1/"
   xmlns:cc="http://creativecommons.org/ns#"
   xmlns:rdf="http://www.w3.org/1999/02/22-rdf-syntax-ns#"
   xmlns:svg="http://www.w3.org/2000/svg"
   xmlns="http://www.w3.org/2000/svg"
   xmlns:sodipodi="http://sodipodi.sourceforge.net/DTD/sodipodi-0.dtd"
   xmlns:inkscape="http://www.inkscape.org/namespaces/inkscape"
   width="204mm"
   height="69mm"
   viewBox="0 0 722.83463 244.48808"
   id="svg5346"
   version="1.1"
   inkscape:version="0.91 r13725"
   sodipodi:docname="SEPL-Logo-and-text-white-final.svg">
  <defs
     id="defs5348" />
  <sodipodi:namedview
     id="base"
     pagecolor="#ffffff"
     bordercolor="#666666"
     borderopacity="1.0"
     inkscape:pageopacity="0.0"
     inkscape:pageshadow="2"
     inkscape:zoom="0.7"
     inkscape:cx="25.923832"
     inkscape:cy="520"
     inkscape:document-units="px"
     inkscape:current-layer="flowRoot5896"
     showgrid="true"
     inkscape:window-width="2560"
     inkscape:window-height="1377"
     inkscape:window-x="-8"
     inkscape:window-y="-8"
     inkscape:window-maximized="1">
    <inkscape:grid
       type="xygrid"
       id="grid5894" />
  </sodipodi:namedview>
  <metadata
     id="metadata5351">
    <rdf:RDF>
      <cc:Work
         rdf:about="">
        <dc:format>image/svg+xml</dc:format>
        <dc:type
           rdf:resource="http://purl.org/dc/dcmitype/StillImage" />
        <dc:title></dc:title>
      </cc:Work>
    </rdf:RDF>
  </metadata>
  <g
     inkscape:label="Ebene 1"
     inkscape:groupmode="layer"
     id="layer1"
     transform="translate(0,-807.8746)">
    <g
       transform="matrix(2,0,0,2,-217.12993,127.73711)"
       style="font-style:italic;font-variant:normal;font-weight:bold;font-stretch:normal;font-size:90px;line-height:125%;font-family:Arial;-inkscape-font-specification:'Arial Bold Italic';letter-spacing:0px;word-spacing:0px;fill:#ffffff;fill-opacity:1;stroke:none;stroke-width:1px;stroke-linecap:butt;stroke-linejoin:miter;stroke-opacity:1"
       id="flowRoot5896">
      <path
         d="M 241.71289,400.05418 254.3252,399.395 q 0.26367,6.02051 2.06542,8.12989 2.9004,3.42773 10.72266,3.42773 6.50391,0 9.4043,-2.3291 2.90039,-2.3291 2.90039,-5.625 0,-2.85645 -2.37305,-4.83398 -1.66992,-1.4502 -9.18457,-4.70215 -7.4707,-3.25196 -10.94238,-5.40528 -3.42774,-2.19726 -5.40527,-5.66894 -1.97754,-3.47168 -1.97754,-8.12988 0,-8.12989 5.88867,-13.49122 5.88867,-5.36132 17.05078,-5.36132 11.33789,0 17.53418,5.31738 6.24023,5.31738 6.85547,14.15039 l -12.7002,0.57129 q -0.4834,-4.61426 -3.33984,-7.0752 -2.85645,-2.46093 -8.4375,-2.46093 -5.49317,0 -7.86621,1.93359 -2.3291,1.93359 -2.3291,4.87793 0,2.76855 2.15332,4.57031 2.15332,1.8457 9.53613,5.05371 11.11816,4.79004 14.15039,7.77832 4.52637,4.39453 4.52637,11.29395 0,8.52539 -6.76758,14.58984 -6.72363,6.02051 -18.76465,6.02051 -8.30566,0 -14.41406,-2.76855 -6.06446,-2.8125 -8.56934,-7.77833 -2.50488,-4.96582 -2.3291,-11.42578 z"
         style="fill:#ffffff;fill-opacity:1"
         id="path4184"
         inkscape:connector-curvature="0" />
      <path
         d="m 299.80859,420.92821 13.44727,-64.42383 47.76855,0 -2.24121,10.7666 -34.49707,0 -3.07617,14.63379 33.35449,0 -2.24121,10.7666 -33.35449,0 -4.04297,17.49024 37.48535,0 -2.28515,10.7666 -50.31739,0 z"
         style="fill:#ffffff;fill-opacity:1"
         id="path4186"
         inkscape:connector-curvature="0" />
      <path
         d="m 373.15332,420.92821 -13.27148,0 13.49121,-64.42383 26.1914,0 q 6.98731,0 11.03028,1.66992 4.08691,1.62598 6.45996,5.44922 2.37304,3.7793 2.37304,9.05273 0,4.87793 -1.88964,9.49219 -1.88965,4.61426 -4.65821,7.38281 -2.72461,2.76856 -5.88867,4.21875 -3.16406,1.40625 -8.52539,2.15332 -3.12012,0.43946 -11.68945,0.43946 l -8.48145,0 -5.1416,24.56543 z m 7.33887,-35.24414 4.08691,0 q 10.50293,0 14.01856,-1.31836 3.51562,-1.31836 5.53711,-4.21875 2.02148,-2.90039 2.02148,-6.37207 0,-2.3291 -1.05469,-3.82325 -1.01074,-1.49414 -2.90039,-2.15332 -1.8457,-0.70312 -8.30566,-0.70312 l -9.49219,0 -3.91113,18.58887 z"
         style="fill:#ffffff;fill-opacity:1"
         id="path4188"
         inkscape:connector-curvature="0" />
      <path
         d="m 420.39453,420.92821 13.49121,-64.42383 13.22754,0 -11.20605,53.65723 32.7832,0 -2.24121,10.7666 -46.05469,0 z"
         style="fill:#ffffff;fill-opacity:1"
         id="path4190"
         inkscape:connector-curvature="0" />
    </g>
    <g
       id="layer1-2"
       inkscape:label="Ebene 1"
       transform="matrix(0.5,0,0,0.5,-66.016191,652.84784)"
       style="fill:#ffffff;fill-opacity:1">
      <path
         inkscape:connector-curvature="0"
         id="path4796"
         d="m 360.64286,792.15348 c -19.90031,-1.57787 -44.77518,-6.95859 -62.89877,-13.60574 -21.84574,-8.01232 -48.20444,-22.7386 -66.53704,-37.17341 -9.11173,-7.17445 -31.627,-29.69273 -38.81117,-38.81638 -13.58143,-17.24793 -26.64776,-39.91714 -34.66777,-60.14625 -21.21821,-53.51929 -22.15221,-115.56149 -2.54425,-169.00465 4.47705,-12.20258 15.76604,-35.35915 22.06415,-45.25916 12.87321,-20.23543 31.51917,-41.47477 49.89485,-56.83451 24.78472,-20.7169 59.56729,-38.73321 90.08924,-46.66348 56.93456,-14.79284 114.80317,-9.23657 165.91076,15.92998 25.08917,12.35448 41.88517,24.13883 61.3362,43.0345 21.26862,20.66137 34.96009,39.34639 47.65337,65.03351 11.43414,23.13903 17.06517,40.10689 21.55574,64.9535 7.12547,39.42559 3.20716,84.58614 -10.62084,122.41076 -5.00656,13.69475 -17.20123,37.91184 -24.99439,49.63574 -18.3726,27.6394 -44.1768,52.89942 -72.43008,70.90262 -19.70375,12.55537 -51.62459,25.65214 -74.5,30.56654 -22.16245,4.76123 -49.41574,6.70817 -70.5,5.03643 z m 44.69878,-30.53042 c 24.19891,-3.12673 45.75844,-9.6926 67.30122,-20.49631 54.49586,-27.32969 94.40521,-77.16577 108.89354,-135.97886 23.44839,-95.18501 -21.58797,-193.1951 -108.89354,-236.97886 -28.33546,-14.21024 -54.11029,-20.71958 -86.07515,-21.73796 -36.55011,-1.16447 -67.15585,5.24863 -98.42485,20.62386 -43.39928,21.3398 -75.34845,53.22537 -96.50042,96.30834 -28.26991,57.58099 -28.23775,125.54089 0.0865,182.73235 23.83273,48.12236 63.41553,84.48928 112.66096,103.50788 14.71875,5.68439 38.13474,11.23925 54.25299,12.87017 9.85877,0.99756 36.09348,0.5197 46.69878,-0.85061 z m -52.66855,-38.72962 c -5.40951,-2.79147 -6.37212,-9.40366 -2.00479,-13.77099 1.87347,-1.87347 3.42996,-1.97456 30.40198,-1.97456 l 28.42742,0 2.07258,2.63486 c 2.90246,3.68988 2.69255,8.43369 -0.50625,11.44083 l -2.57883,2.42431 -26.67117,0.26002 c -20.08006,0.19575 -27.28151,-0.0549 -29.14094,-1.01447 z M 248.86104,705.54061 c -5.07336,-2.58683 -7.64675,-6.92567 -7.64675,-12.89272 0,-6.09274 2.65441,-10.43022 7.90888,-12.92363 l 3.51969,-1.6702 8.4e-4,-16.20309 c 0.001,-20.21422 1.42053,-35.61902 4.07367,-44.2089 3.20379,-10.37265 10.8195,-17.49418 18.70816,-17.49418 2.26134,0 3.1854,-0.70983 4.4926,-3.45105 4.56226,-9.56716 18.8714,-9.85893 23.89746,-0.48729 4.97681,9.27978 -1.29415,20.27167 -11.56513,20.27167 -5.52892,0 -10.23582,-2.8653 -12.38637,-7.54013 -1.96016,-4.26099 -3.07578,-4.49645 -8.85998,-1.86994 -3.43837,1.56131 -4.65977,2.95369 -7.21763,8.22804 -3.76325,7.75985 -4.81317,15.78107 -5.62824,42.99889 l -0.58845,19.65019 3.77334,1.84981 c 9.83382,4.82086 11.00547,18.16111 2.16397,24.63869 -3.65145,2.67516 -10.54533,3.19474 -14.64606,1.10384 z m 10.63679,-4.81772 c 5.3078,-2.74477 6.66405,-9.6439 2.73026,-13.88853 -7.47348,-8.06402 -19.77272,-0.20587 -15.09766,9.64609 2.50892,5.28715 7.22122,6.90363 12.3674,4.24244 z m 78.14503,-13.28444 c -5.48286,-2.01601 -7.01168,-10.05205 -2.68555,-14.11625 2.30346,-2.16398 2.52212,-2.17431 46.04546,-2.17431 l 43.731,0 2.45454,2.45455 c 4.44969,4.44968 2.55682,11.86693 -3.45457,13.5368 -3.73114,1.03646 -83.33341,1.31312 -86.09088,0.29921 z m 189.01993,-17.04211 c -5.43658,-2.73144 -8.29265,-7.73426 -7.74868,-13.57294 0.52848,-5.67242 3.08345,-9.59225 7.61018,-11.67551 l 3.25936,-1.5 -0.42237,-13 c -0.47704,-14.68282 -1.6283,-18.45766 -7.09242,-23.25522 -4.61369,-4.05088 -10.75401,-5.24478 -26.97433,-5.24478 l -13.24989,0 -1.24627,3.44648 c -3.58948,9.92653 -19.81838,10.10578 -24.48555,0.27045 -2.95134,-6.2195 -1.74021,-11.52571 3.81559,-16.71693 2.22312,-2.07724 3.66548,-2.5 8.52935,-2.5 5.10881,0 6.24245,0.37238 8.90793,2.92607 1.67979,1.60934 3.29263,3.67741 3.58409,4.59572 0.45265,1.42619 2.75102,1.75913 15.7615,2.28324 18.79587,0.75716 24.59769,2.29792 30.36316,8.06339 5.3783,5.3783 7.27423,11.7043 8.06436,26.90773 l 0.61202,11.77615 3.36571,1.59714 c 10.56124,5.01163 10.52763,20.70544 -0.0551,25.72727 -4.40997,2.09267 -8.25606,2.05351 -12.59863,-0.12826 z m 10.94644,-4.73106 c 8.92964,-4.6177 3.27849,-19.55255 -6.47239,-17.10523 -8.07616,2.02698 -9.7785,13.18998 -2.60593,17.0882 3.38135,1.83773 5.54962,1.84179 9.07832,0.017 z m -209.4547,-17.76739 c -2.35699,-2.03981 -2.6812,-3.23088 -3.47052,-12.75 -1.2268,-14.79513 -2.63446,-18.21556 -18.51952,-45 -16.66608,-28.10136 -19.64477,-34.29835 -23.78126,-49.47558 -3.13242,-11.49318 -3.10067,-38.29444 0.059,-49.8082 9.53461,-34.7438 37.26701,-62.35911 72.20062,-71.89577 7.43607,-2.03 10.69044,-2.31328 26,-2.26315 16.02434,0.0525 18.25891,0.2848 26.5,2.7552 36.08758,10.81782 62.78378,39.02926 71.14916,75.1875 1.33346,5.76369 1.8381,11.77377 1.80527,21.5 -0.0738,21.8688 -3.69188,32.35567 -23.47066,68.02928 -15.41227,27.79802 -18.74125,36.27072 -20.01125,50.93116 -0.82387,9.51049 -1.16547,10.75925 -3.49853,12.78956 l -2.58551,2.25 -49.88847,0 -49.88847,0 -2.59986,-2.25 z m 39.48586,-16 c -0.001,-0.6875 -4.50049,-28.43837 -9.99806,-61.66861 -5.49757,-33.23023 -9.87526,-60.53893 -9.72819,-60.686 0.14706,-0.14707 7.20322,4.42881 15.68034,10.16861 8.47712,5.7398 15.82676,10.436 16.33253,10.436 0.50576,0 7.84874,-4.73488 16.31771,-10.52196 9.51054,-6.49881 15.39814,-9.95662 15.39814,-9.04339 0,1.49928 -18.50388,114.732 -19.58428,119.84413 l -0.58727,2.77878 13.83577,-0.27878 13.83578,-0.27878 0.63286,-5.18501 c 1.60631,-13.16057 6.34828,-24.49001 21.91059,-52.34848 18.39932,-32.93709 21.42396,-42.12895 20.70178,-62.91274 -0.51586,-14.84643 -1.98913,-20.78273 -8.25573,-33.26514 -19.97792,-39.79395 -68.78733,-56.74097 -109.06253,-37.86738 -22.05306,10.33442 -37.21045,27.91591 -44.89821,52.07875 -2.41109,7.57813 -2.70901,10.0726 -2.7469,23 -0.0385,13.14463 0.21397,15.29453 2.7012,23 4.08579,12.65783 7.25766,19.09562 19.32491,39.22294 6.02686,10.05238 12.35724,21.07006 14.0675,24.48373 3.52681,7.03947 8.12453,20.14277 8.12453,23.15455 0,1.10472 0.43886,3.16288 0.97525,4.57368 0.97224,2.55719 1.01235,2.5651 13,2.5651 8.95445,0 12.02412,-0.31916 12.02228,-1.25 z M 349.3694,483.37577 c -4.2496,-4.27467 -7.72654,-8.03447 -7.72654,-8.35511 0,-0.32064 2.70943,-2.48355 6.02096,-4.80645 12.12113,-8.50249 26.64519,-12.18398 40.03888,-10.14887 8.34957,1.26869 21.26573,6.97534 26.94016,11.90279 l 3.5,3.03925 -7.97654,8.07026 c -4.3871,4.43864 -8.35462,8.07025 -8.81672,8.07025 -0.4621,0 -2.36487,-1.16293 -4.22837,-2.5843 -6.28958,-4.79729 -17.29628,-6.70529 -25.51289,-4.42262 -1.94399,0.54007 -5.67211,2.33756 -8.28473,3.99443 -2.61261,1.65687 -5.08264,3.01249 -5.48894,3.01249 -0.4063,0 -4.21567,-3.49746 -8.46527,-7.77212 z m 48.34646,91.77212 c 5.26514,-31.625 9.41565,-57.69949 9.22335,-57.94331 -0.1923,-0.24382 -6.37212,3.6625 -13.73293,8.68071 l -13.38329,9.12403 -13.15552,-9.03193 c -7.23553,-4.96756 -13.38229,-8.80516 -13.65945,-8.528 -0.4113,0.4113 16.46641,105.74118 18.18502,113.48847 0.48581,2.19 0.86688,2.27732 8.7289,2 l 8.22092,-0.28997 9.573,-57.5 z m -195.573,61.58836 c -5.1208,-2.27596 -7.73421,-5.9704 -8.28605,-11.71358 -0.62952,-6.55148 1.46812,-10.76578 6.86966,-13.80162 2.15401,-1.21062 3.9253,-2.50984 3.9362,-2.88714 0.14744,-5.10619 2.5028,-15.27385 4.39468,-18.97102 6.50023,-12.70296 18.53056,-18.40446 41.88926,-19.85248 10.62632,-0.65873 10.82831,-0.71721 12.29855,-3.56035 3.2818,-6.3463 12.71173,-8.73729 19.09915,-4.84265 8.38492,5.11258 8.38492,17.96838 0,23.08096 -6.74291,4.1114 -16.09501,1.39612 -19.45427,-5.64834 l -1.727,-3.62154 -11.51009,0.48661 c -25.03744,1.05852 -37.10367,9.65503 -38.73024,27.59315 -0.5294,5.83832 -0.47759,5.99602 2.47059,7.52059 5.56789,2.87927 8.24956,7.1471 8.24956,13.12905 0,4.35126 -0.50324,5.94461 -2.70331,8.55925 -4.59888,5.46546 -10.87955,7.159 -16.79669,4.52911 z m 12.25,-7.14305 c 3.49786,-3.97487 3.0906,-9.56021 -0.94468,-12.95567 -2.59667,-2.18495 -3.86019,-2.58229 -6.75,-2.12265 -6.81894,1.08458 -10.32193,8.95196 -6.44832,14.48231 3.35248,4.78634 10.20153,5.07497 14.143,0.59601 z m 330.79715,-12.53805 c -4.58047,-4.02171 -6.29629,-9.4635 -4.68236,-14.85032 1.08793,-3.63116 2.16077,-4.81053 9.02918,-9.92565 5.69095,-4.23823 -1.39236,-15.32142 -11.92152,-18.65352 -3.85726,-1.22068 -10.23458,-1.87574 -21.60707,-2.21942 l -16.13462,-0.4876 -1.19657,3.62567 c -1.75255,5.31025 -7.05421,8.9882 -12.95627,8.9882 -14.22734,0 -19.013,-17.96578 -6.77359,-25.42862 5.93436,-3.61841 13.18127,-1.98359 17.89259,4.03636 l 2.37289,3.032 14.9651,0.42263 c 25.45717,0.71894 36.38374,4.93404 40.91736,15.78454 0.85125,2.03733 1.55934,5.18119 1.57353,6.98635 0.022,2.79629 0.57707,3.54275 3.75,5.04285 7.26288,3.43376 10.17511,11.82577 6.66833,19.21576 -2.41216,5.08326 -6.66783,7.51512 -13.15933,7.51977 -4.40636,0.003 -5.76152,-0.47593 -8.73765,-3.089 z m 15.86396,-4.98399 c 1.45829,-1.73308 2.58889,-4.31984 2.58889,-5.92327 0,-4.40802 -4.41577,-9 -8.65464,-9 -4.77324,0 -7.26013,1.55176 -8.94344,5.58049 -1.23534,2.95659 -1.23656,3.8795 -0.009,6.81738 1.72249,4.12251 3.94002,5.53162 8.76823,5.57172 2.88112,0.0239 4.21265,-0.62507 6.25,-3.04632 z M 189.03912,552.71852 c -6.95483,-3.0275 -9.85729,-11.47931 -6.52733,-19.00723 1.68396,-3.80688 2.89418,-5.01342 6.73109,-6.71067 7.569,-3.34813 14.48105,-1.2194 18.57591,5.72088 l 2.02162,3.42639 20.65123,-0.006 20.65122,-0.006 1.69151,-2.9728 c 5.51175,-9.68681 19.08977,-9.02704 24.4035,1.18579 4.46575,8.58302 -2.28823,18.78719 -12.44072,18.79592 -5.75151,0.005 -9.73863,-2.50617 -12.26474,-7.72442 l -2.06796,-4.27249 -20.1608,0.0362 -20.16079,0.0362 -2,4.21232 c -3.61773,7.61953 -11.46341,10.61174 -19.10374,7.28583 z m 12.68066,-6.49371 c 8.48759,-8.48759 -3.40639,-21.11477 -12.44168,-13.20864 -6.5417,5.72416 -2.28325,15.96457 6.69168,16.09168 1.82779,0.0259 3.86004,-0.99308 5.75,-2.88304 z m 354.10775,5.85057 c -4.04418,-0.85586 -7.97268,-4.32484 -9.82697,-8.67749 l -1.38454,-3.25 -16.47316,0 -16.47316,0 -1.40028,3.35134 c -4.63561,11.09457 -21.88506,10.48551 -25.64443,-0.90548 -4.35389,-13.19241 11.30798,-23.80418 21.93499,-14.86215 1.63679,1.37727 3.25536,3.38437 3.59682,4.46021 0.58456,1.84179 1.62475,1.95571 17.80345,1.94976 l 17.18261,-0.006 1.69151,-2.9728 c 2.38611,-4.19356 7.46307,-7.00635 12.6542,-7.01081 7.57284,-0.007 13.05194,4.90862 13.9046,12.47339 1.13485,10.06833 -7.42408,17.59657 -17.56564,15.45036 z m 8.45487,-6.12803 c 4.95059,-2.35825 5.70195,-9.61181 1.43738,-13.87638 -4.89865,-4.89866 -12.02756,-3.67879 -14.60916,2.49985 -2.2225,5.31917 -0.3479,9.88308 4.97948,12.12308 2.9655,1.24689 4.25404,1.12947 8.1923,-0.74655 z m -275.163,-123.87771 -7.97654,-8.07824 5.5,-5.0277 c 17.33467,-15.84607 40.22042,-27.45683 65,-32.9768 13.96675,-3.11127 41.75155,-3.34402 55,-0.46072 25.43597,5.53571 48.73146,17.32617 67.04901,33.93528 l 5.3087,4.81357 -8.15185,8.15184 -8.15184,8.15185 -2.77701,-2.24198 c -17.75577,-14.33488 -30.48192,-21.67607 -46.07204,-26.57703 -12.5855,-3.95642 -20.85953,-4.88908 -38.68025,-4.36007 -13.62474,0.40444 -17.36426,0.87829 -24.96886,3.16385 -18.51692,5.56526 -32.81425,13.09627 -45.55586,23.99621 -3.575,3.05826 -6.73556,5.56672 -7.02346,5.57434 -0.2879,0.008 -4.1129,-3.62136 -8.5,-8.0644 z"
         style="fill:#ffffff;fill-opacity:1" />
    </g>
    <g
       transform="translate(-16,490)"
       style="font-style:normal;font-variant:normal;font-weight:normal;font-stretch:normal;font-size:40px;line-height:125%;font-family:Arial;-inkscape-font-specification:Arial;letter-spacing:2.71000004px;word-spacing:0px;fill:#ffffff;fill-opacity:1;stroke:none;stroke-width:1px;stroke-linecap:butt;stroke-linejoin:miter;stroke-opacity:1"
       id="flowRoot5912">
      <path
         d="m 281.79687,522.52517 3.57422,-0.3125 q 0.25391,2.14843 1.17188,3.53515 0.9375,1.36719 2.89062,2.22657 1.95313,0.83984 4.39453,0.83984 2.16797,0 3.82813,-0.64453 1.66016,-0.64453 2.46094,-1.75781 0.82031,-1.13282 0.82031,-2.46094 0,-1.34766 -0.78125,-2.34375 -0.78125,-1.01563 -2.57813,-1.69922 -1.15234,-0.44922 -5.09765,-1.38672 -3.94531,-0.95703 -5.52735,-1.79687 -2.05078,-1.07422 -3.0664,-2.65625 -0.9961,-1.60157 -0.9961,-3.57422 0,-2.16797 1.23047,-4.04297 1.23047,-1.89453 3.59375,-2.8711 2.36328,-0.97656 5.25391,-0.97656 3.18359,0 5.60547,1.03516 2.4414,1.01562 3.75,3.00781 1.30859,1.99219 1.40625,4.51172 l -3.63281,0.27344 q -0.29297,-2.71485 -1.99219,-4.10157 -1.67969,-1.38671 -4.98047,-1.38671 -3.4375,0 -5.01953,1.26953 -1.5625,1.25 -1.5625,3.02734 0,1.54297 1.11328,2.53906 1.09375,0.9961 5.70312,2.05078 4.62891,1.03516 6.34766,1.81641 2.5,1.15234 3.69141,2.92969 1.1914,1.75781 1.1914,4.0625 0,2.28515 -1.30859,4.3164 -1.30859,2.01172 -3.76953,3.14454 -2.44141,1.11328 -5.50781,1.11328 -3.88672,0 -6.52344,-1.13282 -2.61719,-1.13281 -4.1211,-3.39843 -1.48437,-2.28516 -1.5625,-5.15625 z"
         style="fill:#ffffff;fill-opacity:1"
         id="path4145"
         inkscape:connector-curvature="0" />
      <path
         d="m 312.06547,531.72439 0,-20.74219 3.14453,0 0,2.91015 q 0.97656,-1.52343 2.59766,-2.4414 1.62109,-0.9375 3.6914,-0.9375 2.30469,0 3.76953,0.95703 1.48438,0.95703 2.08985,2.67578 2.46093,-3.63281 6.40625,-3.63281 3.08593,0 4.74609,1.71875 1.66016,1.69922 1.66016,5.2539 l 0,14.23829 -3.4961,0 0,-13.06641 q 0,-2.10938 -0.35156,-3.02734 -0.33203,-0.9375 -1.23047,-1.50391 -0.89844,-0.56641 -2.10937,-0.56641 -2.1875,0 -3.63282,1.46485 -1.44531,1.44531 -1.44531,4.64843 l 0,12.05079 -3.51562,0 0,-13.47657 q 0,-2.34375 -0.85938,-3.51562 -0.85937,-1.17188 -2.8125,-1.17188 -1.48437,0 -2.7539,0.78125 -1.25,0.78125 -1.81641,2.28516 -0.56641,1.50391 -0.56641,4.33594 l 0,10.76172 -3.51562,0 z"
         style="fill:#ffffff;fill-opacity:1"
         id="path4147"
         inkscape:connector-curvature="0" />
      <path
         d="m 361.74812,529.16579 q -1.95312,1.66016 -3.76953,2.34375 -1.79687,0.6836 -3.86719,0.6836 -3.41796,0 -5.2539,-1.66016 -1.83594,-1.67969 -1.83594,-4.27734 0,-1.52344 0.68359,-2.77344 0.70313,-1.26953 1.81641,-2.03125 1.13281,-0.76172 2.53906,-1.15235 1.03516,-0.27343 3.125,-0.52734 4.25782,-0.50781 6.26953,-1.21094 0.0195,-0.72265 0.0195,-0.91797 0,-2.14843 -0.9961,-3.02734 -1.34765,-1.19141 -4.0039,-1.19141 -2.48047,0 -3.67188,0.87891 -1.17187,0.85938 -1.73828,3.06641 l -3.4375,-0.46875 q 0.46875,-2.20703 1.54297,-3.55469 1.07422,-1.36719 3.10547,-2.08984 2.03125,-0.74219 4.70703,-0.74219 2.65625,0 4.3164,0.625 1.66016,0.625 2.44141,1.58203 0.78125,0.9375 1.09375,2.38281 0.17578,0.89844 0.17578,3.24219 l 0,4.6875 q 0,4.90234 0.21485,6.21094 0.23437,1.28906 0.89843,2.48047 l -3.67187,0 q -0.54688,-1.09375 -0.70313,-2.5586 z m -0.29297,-7.85156 q -1.91406,0.78125 -5.74218,1.32812 -2.16797,0.3125 -3.06641,0.70313 -0.89844,0.39062 -1.38672,1.15234 -0.48828,0.74219 -0.48828,1.66016 0,1.40625 1.05469,2.34375 1.07422,0.9375 3.125,0.9375 2.03125,0 3.61328,-0.87891 1.58203,-0.89843 2.32422,-2.4414 0.5664,-1.19141 0.5664,-3.51563 l 0,-1.28906 z"
         style="fill:#ffffff;fill-opacity:1"
         id="path4149"
         inkscape:connector-curvature="0" />
      <path
         d="m 373.14953,531.72439 0,-20.74219 3.16406,0 0,3.14453 q 1.21094,-2.20703 2.22656,-2.91016 1.03516,-0.70312 2.26563,-0.70312 1.77734,0 3.61328,1.13281 l -1.21094,3.26172 q -1.28906,-0.76172 -2.57812,-0.76172 -1.15235,0 -2.07032,0.70313 -0.91796,0.68359 -1.30859,1.91406 -0.58594,1.875 -0.58594,4.10156 l 0,10.85938 -3.51562,0 z"
         style="fill:#ffffff;fill-opacity:1"
         id="path4151"
         inkscape:connector-curvature="0" />
      <path
         d="m 396.93375,528.57985 0.50781,3.10547 q -1.48438,0.3125 -2.65625,0.3125 -1.91406,0 -2.96875,-0.60547 -1.05469,-0.60546 -1.48438,-1.58203 -0.42968,-0.99609 -0.42968,-4.16015 l 0,-11.9336 -2.57813,0 0,-2.73437 2.57813,0 0,-5.13672 3.49609,-2.10938 0,7.2461 3.53516,0 0,2.73437 -3.53516,0 0,12.12891 q 0,1.50391 0.17578,1.93359 0.19531,0.42969 0.60547,0.6836 0.42969,0.2539 1.21094,0.2539 0.58594,0 1.54297,-0.13672 z"
         style="fill:#ffffff;fill-opacity:1"
         id="path4153"
         inkscape:connector-curvature="0" />
      <path
         d="m 417.39281,531.72439 0,-28.63282 20.70312,0 0,3.37891 -16.91406,0 0,8.76953 15.83984,0 0,3.35938 -15.83984,0 0,9.74609 17.57812,0 0,3.37891 -21.36718,0 z"
         style="fill:#ffffff;fill-opacity:1"
         id="path4155"
         inkscape:connector-curvature="0" />
      <path
         d="m 446.29422,531.72439 0,-20.74219 3.16406,0 0,2.94922 q 2.28516,-3.41797 6.60156,-3.41797 1.875,0 3.4375,0.68359 1.58204,0.66406 2.36329,1.75781 0.78125,1.09375 1.09375,2.59766 0.19531,0.97656 0.19531,3.41797 l 0,12.75391 -3.51563,0 0,-12.61719 q 0,-2.14844 -0.41015,-3.20313 -0.41016,-1.07422 -1.46485,-1.69922 -1.03515,-0.64453 -2.4414,-0.64453 -2.2461,0 -3.88672,1.42578 -1.6211,1.42579 -1.6211,5.41016 l 0,11.32813 -3.51562,0 z"
         style="fill:#ffffff;fill-opacity:1"
         id="path4157"
         inkscape:connector-curvature="0" />
      <path
         d="m 485.46906,525.0447 3.63281,0.44922 q -0.85938,3.18359 -3.1836,4.9414 -2.32421,1.75782 -5.9375,1.75782 -4.55078,0 -7.22656,-2.79297 -2.65625,-2.8125 -2.65625,-7.8711 0,-5.23437 2.69531,-8.125 2.69532,-2.89062 6.99219,-2.89062 4.16016,0 6.79688,2.83203 2.63672,2.83203 2.63672,7.96875 0,0.3125 -0.0195,0.9375 l -15.46875,0 q 0.19532,3.41797 1.9336,5.23437 1.73828,1.81641 4.33594,1.81641 1.93359,0 3.30078,-1.01562 1.36718,-1.01563 2.16797,-3.24219 z m -11.54297,-5.6836 11.58203,0 q -0.23438,-2.61718 -1.32813,-3.92578 -1.67968,-2.03125 -4.35547,-2.03125 -2.42187,0 -4.08203,1.6211 -1.64062,1.62109 -1.8164,4.33593 z"
         style="fill:#ffffff;fill-opacity:1"
         id="path4159"
         inkscape:connector-curvature="0" />
      <path
         d="m 496.20641,531.72439 0,-20.74219 3.16406,0 0,3.14453 q 1.21094,-2.20703 2.22656,-2.91016 1.03516,-0.70312 2.26563,-0.70312 1.77734,0 3.61328,1.13281 l -1.21094,3.26172 q -1.28906,-0.76172 -2.57813,-0.76172 -1.15234,0 -2.07031,0.70313 -0.91797,0.68359 -1.30859,1.91406 -0.58594,1.875 -0.58594,4.10156 l 0,10.85938 -3.51562,0 z"
         style="fill:#ffffff;fill-opacity:1"
         id="path4161"
         inkscape:connector-curvature="0" />
      <path
         d="m 511.67032,533.44314 3.41797,0.50781 q 0.21484,1.58203 1.1914,2.30469 1.3086,0.97656 3.57422,0.97656 2.44141,0 3.76953,-0.97656 1.32813,-0.97657 1.79688,-2.73438 0.27344,-1.07422 0.2539,-4.51172 -2.30468,2.71485 -5.74218,2.71485 -4.27735,0 -6.6211,-3.08594 -2.34375,-3.08594 -2.34375,-7.40235 0,-2.96875 1.07422,-5.46875 1.07422,-2.51953 3.10547,-3.88671 2.05078,-1.36719 4.80469,-1.36719 3.67187,0 6.05469,2.96875 l 0,-2.5 3.24218,0 0,17.92969 q 0,4.84375 -0.99609,6.85546 -0.97656,2.03125 -3.125,3.20313 -2.12891,1.17187 -5.25391,1.17187 -3.71093,0 -5.99609,-1.67968 -2.28516,-1.66016 -2.20703,-5.01953 z m 2.91015,-12.46094 q 0,4.08203 1.6211,5.95703 1.62109,1.875 4.0625,1.875 2.42187,0 4.0625,-1.85547 1.64062,-1.875 1.64062,-5.85937 0,-3.8086 -1.69922,-5.74219 -1.67968,-1.9336 -4.0625,-1.9336 -2.34375,0 -3.98437,1.91407 -1.64063,1.89453 -1.64063,5.64453 z"
         style="fill:#ffffff;fill-opacity:1"
         id="path4163"
         inkscape:connector-curvature="0" />
      <path
         d="m 537.13422,539.71267 -0.39063,-3.30078 q 1.15235,0.3125 2.01172,0.3125 1.17188,0 1.875,-0.39063 0.70313,-0.39062 1.15234,-1.09375 0.33204,-0.52734 1.07422,-2.61719 0.0977,-0.29297 0.3125,-0.85937 l -7.87109,-20.78125 3.78906,0 4.31641,12.01172 q 0.83984,2.28515 1.5039,4.80468 0.60547,-2.42187 1.44532,-4.72656 l 4.43359,-12.08984 3.51563,0 -7.89063,21.09375 q -1.26953,3.41797 -1.97266,4.70703 -0.9375,1.73828 -2.14843,2.53906 -1.21094,0.82031 -2.89063,0.82031 -1.01562,0 -2.26562,-0.42968 z"
         style="fill:#ffffff;fill-opacity:1"
         id="path4165"
         inkscape:connector-curvature="0" />
      <path
         d="m 574.25345,531.72439 0,-28.63282 10.80078,0 q 2.85156,0 4.35547,0.27344 2.10937,0.35156 3.53515,1.34766 1.42579,0.97656 2.28516,2.7539 0.87891,1.77735 0.87891,3.90625 0,3.65235 -2.32422,6.19141 -2.32422,2.51953 -8.39844,2.51953 l -7.34375,0 0,11.64063 -3.78906,0 z m 3.78906,-15.01954 7.40234,0 q 3.67188,0 5.21485,-1.36718 1.54297,-1.36719 1.54297,-3.84766 0,-1.79687 -0.91797,-3.06641 -0.89844,-1.28906 -2.38281,-1.69921 -0.95704,-0.25391 -3.53516,-0.25391 l -7.32422,0 0,10.23437 z"
         style="fill:#ffffff;fill-opacity:1"
         id="path4167"
         inkscape:connector-curvature="0" />
      <path
         d="m 603.15485,531.72439 0,-28.63282 3.51562,0 0,28.63282 -3.51562,0 z"
         style="fill:#ffffff;fill-opacity:1"
         id="path4169"
         inkscape:connector-curvature="0" />
      <path
         d="m 628.38437,529.16579 q -1.95313,1.66016 -3.76953,2.34375 -1.79688,0.6836 -3.86719,0.6836 -3.41797,0 -5.25391,-1.66016 -1.83593,-1.67969 -1.83593,-4.27734 0,-1.52344 0.68359,-2.77344 0.70313,-1.26953 1.81641,-2.03125 1.13281,-0.76172 2.53906,-1.15235 1.03516,-0.27343 3.125,-0.52734 4.25781,-0.50781 6.26953,-1.21094 0.0195,-0.72265 0.0195,-0.91797 0,-2.14843 -0.99609,-3.02734 -1.34766,-1.19141 -4.00391,-1.19141 -2.48047,0 -3.67187,0.87891 -1.17188,0.85938 -1.73828,3.06641 l -3.4375,-0.46875 q 0.46875,-2.20703 1.54296,-3.55469 1.07422,-1.36719 3.10547,-2.08984 2.03125,-0.74219 4.70703,-0.74219 2.65625,0 4.31641,0.625 1.66016,0.625 2.44141,1.58203 0.78125,0.9375 1.09375,2.38281 0.17578,0.89844 0.17578,3.24219 l 0,4.6875 q 0,4.90234 0.21484,6.21094 0.23438,1.28906 0.89844,2.48047 l -3.67188,0 q -0.54687,-1.09375 -0.70312,-2.5586 z m -0.29297,-7.85156 q -1.91406,0.78125 -5.74219,1.32812 -2.16797,0.3125 -3.0664,0.70313 -0.89844,0.39062 -1.38672,1.15234 -0.48828,0.74219 -0.48828,1.66016 0,1.40625 1.05468,2.34375 1.07422,0.9375 3.125,0.9375 2.03125,0 3.61329,-0.87891 1.58203,-0.89843 2.32421,-2.4414 0.56641,-1.19141 0.56641,-3.51563 l 0,-1.28906 z"
         style="fill:#ffffff;fill-opacity:1"
         id="path4171"
         inkscape:connector-curvature="0" />
      <path
         d="m 647.50061,528.57985 0.50781,3.10547 q -1.48437,0.3125 -2.65625,0.3125 -1.91406,0 -2.96875,-0.60547 -1.05468,-0.60546 -1.48437,-1.58203 -0.42969,-0.99609 -0.42969,-4.16015 l 0,-11.9336 -2.57812,0 0,-2.73437 2.57812,0 0,-5.13672 3.49609,-2.10938 0,7.2461 3.53516,0 0,2.73437 -3.53516,0 0,12.12891 q 0,1.50391 0.17579,1.93359 0.19531,0.42969 0.60546,0.6836 0.42969,0.2539 1.21094,0.2539 0.58594,0 1.54297,-0.13672 z"
         style="fill:#ffffff;fill-opacity:1"
         id="path4173"
         inkscape:connector-curvature="0" />
      <path
         d="m 654.46844,531.72439 0,-18.00782 -3.10546,0 0,-2.73437 3.10546,0 0,-2.20703 q 0,-2.08985 0.3711,-3.10547 0.50781,-1.36719 1.77734,-2.20703 1.28906,-0.85938 3.59375,-0.85938 1.48438,0 3.28125,0.35156 l -0.52734,3.06641 q -1.09375,-0.19531 -2.07031,-0.19531 -1.60157,0 -2.26563,0.68359 -0.66406,0.6836 -0.66406,2.5586 l 0,1.91406 4.04297,0 0,2.73437 -4.04297,0 0,18.00782 -3.4961,0 z"
         style="fill:#ffffff;fill-opacity:1"
         id="path4175"
         inkscape:connector-curvature="0" />
      <path
         d="m 666.12375,521.35329 q 0,-5.76172 3.20312,-8.53515 2.67579,-2.30469 6.52344,-2.30469 4.27735,0 6.99219,2.8125 2.71484,2.79297 2.71484,7.73437 0,4.00391 -1.21093,6.3086 -1.19141,2.28515 -3.4961,3.55468 -2.28515,1.26954 -5,1.26954 -4.35547,0 -7.05078,-2.79297 -2.67578,-2.79297 -2.67578,-8.04688 z m 3.61328,0 q 0,3.98438 1.73828,5.97656 1.73828,1.97266 4.375,1.97266 2.61719,0 4.35547,-1.99219 1.73828,-1.99218 1.73828,-6.07422 0,-3.84765 -1.75781,-5.82031 -1.73828,-1.99219 -4.33594,-1.99219 -2.63672,0 -4.375,1.97266 -1.73828,1.97266 -1.73828,5.95703 z"
         style="fill:#ffffff;fill-opacity:1"
         id="path4177"
         inkscape:connector-curvature="0" />
      <path
         d="m 692.3689,531.72439 0,-20.74219 3.16406,0 0,3.14453 q 1.21094,-2.20703 2.22656,-2.91016 1.03516,-0.70312 2.26563,-0.70312 1.77734,0 3.61328,1.13281 l -1.21094,3.26172 q -1.28906,-0.76172 -2.57812,-0.76172 -1.15235,0 -2.07032,0.70313 -0.91797,0.68359 -1.30859,1.91406 -0.58594,1.875 -0.58594,4.10156 l 0,10.85938 -3.51562,0 z"
         style="fill:#ffffff;fill-opacity:1"
         id="path4179"
         inkscape:connector-curvature="0" />
      <path
         d="m 708.47736,531.72439 0,-20.74219 3.14453,0 0,2.91015 q 0.97656,-1.52343 2.59765,-2.4414 1.6211,-0.9375 3.69141,-0.9375 2.30469,0 3.76953,0.95703 1.48438,0.95703 2.08984,2.67578 2.46094,-3.63281 6.40625,-3.63281 3.08594,0 4.7461,1.71875 1.66015,1.69922 1.66015,5.2539 l 0,14.23829 -3.49609,0 0,-13.06641 q 0,-2.10938 -0.35156,-3.02734 -0.33203,-0.9375 -1.23047,-1.50391 -0.89844,-0.56641 -2.10938,-0.56641 -2.1875,0 -3.63281,1.46485 -1.44531,1.44531 -1.44531,4.64843 l 0,12.05079 -3.51563,0 0,-13.47657 q 0,-2.34375 -0.85937,-3.51562 -0.85938,-1.17188 -2.8125,-1.17188 -1.48438,0 -2.75391,0.78125 -1.25,0.78125 -1.8164,2.28516 -0.56641,1.50391 -0.56641,4.33594 l 0,10.76172 -3.51562,0 z"
         style="fill:#ffffff;fill-opacity:1"
         id="path4181"
         inkscape:connector-curvature="0" />
    </g>
  </g>
</svg>
