<?xml version="1.0" encoding="utf-8"?>
<!-- Generator: Adobe Illustrator 19.2.1, SVG Export Plug-In . SVG Version: 6.00 Build 0)  -->
<svg version="1.1" id="Layer_1" xmlns="http://www.w3.org/2000/svg" x="0px" y="0px"
     viewBox="0 0 283.5 141.7" style="enable-background:new 0 0 283.5 141.7;" xml:space="preserve">
<style type="text/css">
	.st0{fill:#52AF2F;}
	.st1{fill:#FFFFFF;}
	.st2{fill:#1A641E;}
</style>
<rect class="st0" width="283.5" height="141.7"/>
<g>
	<path class="st1" d="M236.4,96.2c0,4.7,1.9,7.3,7,7.3c2.1,0,3.9-0.4,4.4-0.5v-4.6c-0.9,0.3-2,0.5-3.1,0.5c-1.7,0-2.4-0.5-2.4-3.1
		v-9.3h4.9V82h-4.9v-6.2c-3.2,0.3-5.3,1.2-5.8,1.4V82h-2.7v4.4h2.7V96.2z M210.5,81.5c-3,0-5.2,1.6-6.1,3.4c0-0.6-0.1-2.1-0.4-2.9
		h-4.9v21h5.8V92.4c0-4.5,1.4-6.1,4-6.1c1.2,0,2,0.7,2.3,1.7c0.4,1,0.4,2,0.4,4.1V103h5.8V92.4c0-4.4,1.4-6.1,3.9-6.1
		c1.2,0,2,0.7,2.4,1.7c0.3,1,0.4,2,0.4,4.1V103h5.8V90.9c0-2.4-0.2-4.3-0.8-5.7c-1.1-2.6-3.3-3.7-6.1-3.7c-3,0-5.4,1.8-6.3,3.6
		C215.6,82.6,213.5,81.5,210.5,81.5 M187.5,95.5c0,2.3-1.5,3.8-4,3.8c-1.4,0-2.4-0.9-2.4-2.3c0-1.2,0.5-2.1,2.7-2.8l2.4-0.7
		c0.7-0.2,1-0.4,1.3-0.7V95.5z M193.4,89.2c0-5.9-3.3-7.7-8.3-7.7c-3.3,0-6.1,0.5-8,1.4v4.7c1.8-0.7,4.8-1.5,7.5-1.5
		c2,0,3,0.7,3,1.8c0,1-0.5,1.6-2.2,2l-3.3,0.8c-5,1.2-6.7,3.5-6.7,6.8c0,3.4,2.4,6.1,6.3,6.1c2.6,0,4.8-0.9,6.4-2.8
		c0,0.6,0.1,1.6,0.4,2.3h4.9V89.2z M164.1,81.5c-5.6,0-8.1,2.9-8.1,6.4c0,3.6,2.1,5.3,5.4,6.4l1.9,0.7c1.9,0.6,2.6,1.2,2.6,2.2
		c0,1.2-1,1.9-3,1.9c-2.2,0-4.8-0.7-6.9-1.9v4.9c2.3,1,4.3,1.6,6.9,1.6c5.8,0,8.9-2.5,8.9-6.9c0-3-1.6-5-5.2-6.1l-1.9-0.6
		c-2-0.7-2.7-1.2-2.7-2.2c0-1.1,1-1.7,2.6-1.7c1.8,0,4.2,0.5,6.3,1.4v-4.7C169.1,82.1,166.8,81.5,164.1,81.5 M144,86.1
		c1.6,0,2.6,0.8,2.6,2.2c0,1.2-0.9,2-2.8,2.5l-2.6,0.7c-0.9,0.2-1.4,0.5-1.7,0.8v-0.4C139.5,88.3,141.2,86.1,144,86.1 M145.6,94.2
		c4.7-1.1,6.9-2.6,6.9-6.3c0-3.5-2.6-6.4-8.4-6.4c-6.1,0-10.3,4.4-10.3,11c0,6.7,3.3,11,9.8,11c3.8,0,6.8-0.8,8.8-1.9V97
		c-2.6,1.1-6.3,2-8.8,2c-2.3,0-3.2-1.4-3.2-2.3c0-0.9,0.5-1.4,1.5-1.6L145.6,94.2z M123.3,92.5c0,4-1,6.4-3.9,6.4
		c-2.9,0-3.9-2.4-3.9-6.4s1-6.3,3.9-6.3C122.3,86.2,123.3,88.5,123.3,92.5 M129.1,73.2h-5.8v11c-0.8-1.3-2.7-2.7-5.4-2.7
		c-5.9,0-8.3,4.4-8.3,11c0,6.7,2.4,11,8.5,11c2.6,0,4.7-1.4,5.8-3.1c0,0.6,0,1.7,0.4,2.5h4.9V73.2z M98,81.5c-3.2,0-5.5,1.6-6.5,3.4
		c0-0.6-0.1-2.1-0.4-2.9h-4.9v21H92V92.4c0-4.5,1.5-6.1,4.2-6.1c1.4,0,2.2,0.6,2.6,1.7c0.3,0.8,0.4,1.7,0.4,4.1V103h5.8V90.9
		c0-2.4-0.2-4.3-0.8-5.7C103.2,82.6,101,81.5,98,81.5 M68.6,103.6c3.2,0,5.4-1.6,6.4-3.4c0,0.6,0.1,2.1,0.4,2.8h4.9V82h-5.8v10.6
		c0,4.5-1.4,6.1-4.1,6.1c-1.3,0-2.2-0.6-2.6-1.8c-0.3-0.8-0.5-1.6-0.5-4.1V82h-5.8v12.2c0,2.2,0.1,4.2,0.7,5.7
		C63.3,102.4,65.3,103.6,68.6,103.6 M44.5,78.8c3.8,0,4.9,1.2,4.9,3.4c0,2.2-1.4,3.7-5.3,3.7h-2.4v-6.9
		C42.6,78.9,43.4,78.8,44.5,78.8 M45.3,90.6c4.1,0,5.5,1.6,5.5,3.9c0,2.3-1.1,4-5.1,4c-1.7,0-3.1,0-4-0.1v-7.7H45.3z M44.3,103.4
		c9.8,0,12.8-3.3,12.8-8.6c0-3.8-2.6-6.6-5.6-7.3c2.4-0.8,4.2-3,4.2-5.7c0-5.4-3.4-7.9-11.2-7.9c-2.5,0-7.8,0.4-8.8,0.6V103
		C37.8,103.2,40.2,103.4,44.3,103.4"/>
	<path class="st1" d="M168.4,58.4c0,4.7,1.9,7.3,7,7.3c2.1,0,3.9-0.4,4.4-0.5v-4.6c-0.9,0.3-2,0.5-3.1,0.5c-1.7,0-2.4-0.5-2.4-3.1
		v-9.3h4.9v-4.4h-4.9v-6.2c-3.2,0.3-5.3,1.2-5.8,1.4v4.7h-2.7v4.4h2.7V58.4z M155.1,58.5c0,5.1,1.7,7,5.6,7c1.2,0,2.6-0.2,3-0.3
		v-4.5h-1c-1.3,0-1.8-0.5-1.8-2.5V35.4h-5.8V58.5z M142,48.3c1.6,0,2.6,0.8,2.6,2.2c0,1.2-0.9,2-2.8,2.5l-2.6,0.7
		c-0.9,0.2-1.4,0.5-1.7,0.8V54C137.6,50.5,139.2,48.3,142,48.3 M143.6,56.4c4.7-1.1,6.9-2.6,6.9-6.3c0-3.5-2.6-6.4-8.4-6.4
		c-6.1,0-10.3,4.4-10.3,11s3.3,11,9.8,11c3.8,0,6.8-0.8,8.8-1.9v-4.7c-2.6,1.1-6.3,2-8.8,2c-2.3,0-3.2-1.4-3.2-2.3
		c0-0.9,0.5-1.4,1.5-1.6L143.6,56.4z M123,65.3c2.4-4.9,5.1-13.7,6.7-21h-6.1c-0.9,5.8-2.2,11.6-3.4,14.9c-1.2-3.3-2.8-9.1-3.9-14.9
		h-5.1c-1.2,5.8-2.7,11.6-3.9,14.9c-1.2-3.3-2.4-9.1-3.4-14.9h-6.1c1.6,7.3,4.3,16.1,6.8,21h5.2c1.6-4.1,3.4-10.1,4-12.7
		c0.5,2.6,2.3,8.6,4,12.7H123z M75.2,43.7c-3,0-5.2,1.6-6.1,3.4c0-0.6-0.1-2.1-0.4-2.9h-4.9v21h5.8V54.6c0-4.5,1.4-6.1,4-6.1
		c1.2,0,2,0.7,2.3,1.7c0.4,1,0.4,2,0.4,4.1v10.9h5.8V54.6c0-4.4,1.4-6.1,3.9-6.1c1.2,0,2,0.7,2.4,1.7c0.3,1,0.4,2,0.4,4.1v10.9h5.8
		V53.1c0-2.4-0.2-4.3-0.8-5.7c-1.1-2.6-3.3-3.7-6.1-3.7c-3,0-5.4,1.8-6.3,3.6C80.3,44.9,78.1,43.7,75.2,43.7 M41.7,36.5h-6.1V55
		c0,7,4.4,10.8,11,10.8s11-3.8,11-10.8V36.5h-6.1v18.2c0,3.9-1.8,6.1-5,6.1c-3.2,0-5-2.2-5-6.1V36.5z"/>
	<path class="st2" d="M205.6,46.2c-3.7-0.3-6.5-0.8-10.3-1c-0.5,1.7-0.8,3.5-0.8,5.3c0,9,6,16.5,14.3,19h0c3-4.6,3.6-8.5,4.2-13.7
		c0.3-2.1,0.1-4.8-1.1-6.7C210.8,47.1,208,46.2,205.6,46.2 M228,43.5c1.6,0.2,5.4,0.3,5.4,0.3c-2.8-7.6-10.2-13-18.9-13
		c-8.7,0-16,5.4-18.8,13c1.4,0.2,3.6-0.3,5.2-0.3c3.1-0.4,7.1-0.9,10.4-1.3c0.9-0.1,1.6-0.2,2.4-0.8c-1.3-0.4-2.3-1.6-2.3-3.1
		c0-1.8,1.4-3.2,3.2-3.2c1.8,0,3.2,1.4,3.2,3.2c0,1.6-1.2,2.8-2.6,3.1c0.8,0.6,1.5,0.7,2.4,0.8C221,42.6,225,43,228,43.5
		 M234.6,50.5c0-1.8-0.3-3.6-0.7-5.3h-0.2c-3.8,0.2-6.6,0.7-10.3,1c-2.4,0-5.2,0.9-6.4,2.8c-1.2,2-1.3,4.6-1.1,6.7
		c0.6,5.2,1.2,9.2,4.2,13.7l0.1,0C228.5,67.1,234.6,59.5,234.6,50.5"/>
</g>
</svg>
