<?xml version="1.0" encoding="utf-8"?>
<!-- Generator: Adobe Illustrator 16.0.0, SVG Export Plug-In . SVG Version: 6.00 Build 0)  -->
<!DOCTYPE svg PUBLIC "-//W3C//DTD SVG 1.1//EN" "http://www.w3.org/Graphics/SVG/1.1/DTD/svg11.dtd">
<svg version="1.1" id="Ebene_1" xmlns="http://www.w3.org/2000/svg" xmlns:xlink="http://www.w3.org/1999/xlink" x="0px" y="0px"
	 width="854px" height="290px" viewBox="0 0 854 290" enable-background="new 0 0 854 290" xml:space="preserve">
<g>
	<path fill="#4484CE" d="M261.45,162.224c-0.13-1.918,0.877-2.893,2.665-2.893h6.598c1.658,0,2.6,0.942,2.795,2.729
		c1.235,9.264,9.035,14.139,20.118,14.139c10.498,0,17.908-5.298,17.908-13.553c0-8.743-8.84-12.546-18.916-16.251
		c-13.553-5.005-29.023-9.848-29.023-28.081c0-15.861,13.65-24.668,28.146-24.668c14.625,0,27.724,8.288,29.089,24.213
		c0.13,1.918-0.877,2.893-2.665,2.893h-6.598c-1.657,0-2.6-0.942-2.795-2.633c-1.138-8.417-7.93-12.773-17.031-12.773
		c-9.133,0-16.121,4.811-16.121,12.968c0,9.165,8.158,12.838,18.233,16.641c13.585,5.135,29.707,10.107,29.707,27.691
		c0,15.958-14.074,25.253-29.934,25.253C277.083,187.9,262.815,179.125,261.45,162.224z"/>
	<path d="M390.542,177.597v5.915c0,1.789-0.976,2.764-2.763,2.764h-45.34h-1.787c-1.787,0-2.762-0.975-2.762-2.764V98.034
		c0-1.788,0.975-2.763,2.762-2.763h9.264h37.213c1.788,0,2.764,0.975,2.764,2.763v5.915c0,1.788-0.976,2.763-2.764,2.763h-37.213
		v27.984h33.963c1.788,0,2.764,0.975,2.764,2.763v5.785c0,1.787-0.976,2.763-2.764,2.763h-33.963v28.828h37.863
		C389.566,174.834,390.542,175.809,390.542,177.597z"/>
	<path d="M459.018,95.271h6.5c1.789,0,2.764,0.975,2.764,2.763v85.478c0,1.789-0.975,2.764-2.764,2.764h-4.777
		c-1.494,0-2.633-0.553-3.348-1.787l-40.139-65.491v64.514c0,1.789-0.975,2.764-2.763,2.764h-6.5c-1.788,0-2.763-0.975-2.763-2.764
		V98.034c0-1.788,0.975-2.763,2.763-2.763h4.777c1.495,0,2.633,0.553,3.348,1.788l40.14,65.49V98.034
		C456.256,96.247,457.23,95.271,459.018,95.271z"/>
	<path d="M540.43,177.597v5.915c0,1.789-0.975,2.764-2.762,2.764h-45.34h-1.787c-1.787,0-2.764-0.975-2.764-2.764V98.034
		c0-1.788,0.977-2.763,2.764-2.763h9.262h37.215c1.787,0,2.762,0.975,2.762,2.763v5.915c0,1.788-0.975,2.763-2.762,2.763h-37.215
		v27.984h33.965c1.787,0,2.762,0.975,2.762,2.763v5.785c0,1.787-0.975,2.763-2.762,2.763h-33.965v28.828h37.865
		C539.455,174.834,540.43,175.809,540.43,177.597z"/>
	<path d="M624.408,186.275h-8.061c-1.396,0-2.502-0.424-3.445-1.561l-28.529-33.216h-17.232v32.013c0,1.789-0.975,2.764-2.762,2.764
		h-6.5c-1.787,0-2.764-0.975-2.764-2.764V98.034c0-1.788,0.977-2.763,2.764-2.763h9.262h21.127
		c15.633,0,28.275,12.643,28.275,28.276c0,12.027-7.904,22.509-18.939,26.37l28.365,32.913
		C627.463,184.617,626.748,186.275,624.408,186.275z M567.141,140.513h21.127c8.938,0,16.25-7.605,16.25-16.966
		c0-9.458-7.313-16.965-16.25-16.965h-21.127V140.513z"/>
	<path d="M718.365,142.17v8.224v33.118c0,1.789-0.975,2.764-2.762,2.764h-6.176c-1.787,0-2.762-0.975-2.762-2.764v-10.47
		c-6.824,10.05-18.807,14.859-32.08,14.859c-26.813,0-46.477-20.931-46.477-47.127c0-26.195,19.793-47.126,47.127-47.126
		c19.307,0,35.979,11.473,42.09,27.723c0.682,1.918-0.293,3.153-2.244,3.153h-7.246c-1.527,0-2.568-0.683-3.283-2.048
		c-4.939-10.141-16.283-17.128-29.316-17.128c-20.801,0-35.102,15.471-35.102,35.426c0,20.281,14.496,35.752,35.102,35.752
		c16.449,0,30.963-8.743,31.328-26.131h-26.711c-1.789,0-2.764-0.976-2.764-2.763v-5.461c0-1.787,0.975-2.763,2.764-2.763h35.75
		C717.391,139.408,718.365,140.383,718.365,142.17z"/>
	<path d="M794.318,98.586l-28.895,46.027v38.898c0,1.789-0.975,2.764-2.762,2.764h-6.502c-1.787,0-2.762-0.975-2.762-2.764v-39.054
		l-28.797-45.871c-1.201-1.853-0.357-3.315,1.82-3.315h7.477c1.43,0,2.502,0.585,3.281,1.853l22.281,35.96l22.279-35.96
		c0.781-1.268,1.854-1.853,3.283-1.853h7.475C794.676,95.271,795.52,96.734,794.318,98.586z"/>
</g>
<g>
	<g>
		
			<line fill="none" stroke="#F19F4D" stroke-width="9" stroke-linecap="round" stroke-miterlimit="10" x1="124.371" y1="243.583" x2="142.371" y2="243.583"/>
		<path fill="none" stroke="#F19F4D" stroke-width="6" stroke-miterlimit="10" d="M153.68,243.593c0,2.566-2.08,4.645-4.644,4.645
			c-2.564,0-4.642-2.078-4.642-4.645c0-2.559,2.076-4.639,4.642-4.639C151.6,238.954,153.68,241.034,153.68,243.593z"/>
		<path fill="none" stroke="#F19F4D" stroke-width="6" stroke-miterlimit="10" d="M122.679,243.593c0,2.566-2.079,4.645-4.643,4.645
			c-2.564,0-4.642-2.078-4.642-4.645c0-2.559,2.076-4.639,4.642-4.639C120.6,238.954,122.679,241.034,122.679,243.593z"/>
	</g>
	<g>
		
			<line fill="none" stroke="#4484CE" stroke-width="9" stroke-miterlimit="10" x1="116.371" y1="226.583" x2="151.371" y2="226.583"/>
		<path fill="none" stroke="#4484CE" stroke-width="6" stroke-miterlimit="10" d="M158.68,226.593c0,2.566-2.08,4.645-4.644,4.645
			c-2.564,0-4.642-2.078-4.642-4.645c0-2.559,2.076-4.639,4.642-4.639C156.6,221.954,158.68,224.034,158.68,226.593z"/>
		<path fill="none" stroke="#4484CE" stroke-width="6" stroke-miterlimit="10" d="M117.679,226.593c0,2.566-2.079,4.645-4.643,4.645
			c-2.564,0-4.642-2.078-4.642-4.645c0-2.559,2.076-4.639,4.642-4.639C115.6,221.954,117.679,224.034,117.679,226.593z"/>
	</g>
	<path fill="none" stroke="#000000" stroke-width="6" stroke-miterlimit="10" d="M201.857,106.811c0,2.566-2.182,4.646-4.869,4.646
		s-4.867-2.079-4.867-4.646c0-2.558,2.18-4.639,4.867-4.639S201.857,104.252,201.857,106.811z"/>
	<path fill="none" stroke="#000000" stroke-width="8" stroke-linecap="round" stroke-linejoin="round" stroke-miterlimit="10" d="
		M70.036,101.101c0,0,3.001-59.969,64.535-59.333c64.536,0.667,62.233,58.85,62.233,58.85"/>
	<path fill="none" stroke="#000000" stroke-width="6" stroke-miterlimit="10" d="M74.952,106.811c0,2.566-2.181,4.646-4.869,4.646
		s-4.866-2.079-4.866-4.646c0-2.558,2.178-4.639,4.866-4.639S74.952,104.252,74.952,106.811z"/>
	<g>
		<g>
			<path fill="none" stroke="#000000" stroke-width="6" stroke-miterlimit="10" d="M70.525,122.171c2.68,0,4.854,2.081,4.854,4.639
				c0,2.567-2.174,4.646-4.854,4.646s-4.856-2.08-4.856-4.646C65.669,124.252,67.845,122.171,70.525,122.171z"/>
			<path fill="none" stroke="#000000" stroke-width="8" stroke-linecap="round" stroke-miterlimit="10" d="M110.57,200.933
				c0,0,0.178,0.521-1-7.283c-1.179-7.807-4.532-15.232-13.532-23.732c-20.5-15-25.34-37.149-25.34-37.149"/>
			<path fill="none" stroke="#000000" stroke-width="6" stroke-miterlimit="10" d="M110.552,202.611
				c2.682,0,4.854,2.082,4.854,4.639c0,2.568-2.173,4.646-4.854,4.646c-2.682,0-4.857-2.08-4.857-4.646
				C105.694,204.693,107.869,202.611,110.552,202.611z"/>
		</g>
		<g>
			<path fill="none" stroke="#000000" stroke-width="6" stroke-miterlimit="10" d="M201.405,126.811
				c0,2.566-2.176,4.646-4.856,4.646s-4.854-2.079-4.854-4.646c0-2.558,2.175-4.639,4.854-4.639
				C199.229,122.171,201.405,124.252,201.405,126.811z"/>
			<path fill="none" stroke="#000000" stroke-width="8" stroke-linecap="round" stroke-miterlimit="10" d="M196.376,132.768
				c0,0-4.839,22.149-25.339,37.149c-9,8.5-12.354,15.926-13.533,23.732c-1.178,7.805-1,7.283-1,7.283"/>
			<path fill="none" stroke="#000000" stroke-width="6" stroke-miterlimit="10" d="M161.38,207.25c0,2.566-2.176,4.646-4.857,4.646
				c-2.681,0-4.854-2.078-4.854-4.646c0-2.557,2.172-4.639,4.854-4.639C159.205,202.611,161.38,204.693,161.38,207.25z"/>
		</g>
	</g>
	<g>
		<g>
			
				<polyline fill="none" stroke="#000000" stroke-width="6" stroke-linecap="round" stroke-linejoin="round" stroke-miterlimit="10" points="
				143.371,195.083 143.371,170.256 162.936,147.768 162.569,98.844 			"/>
			<path fill="none" stroke="#4484CE" stroke-width="6" stroke-miterlimit="10" d="M167.18,92.811c0,2.566-2.08,4.646-4.644,4.646
				c-2.564,0-4.642-2.079-4.642-4.646c0-2.558,2.077-4.639,4.642-4.639C165.1,88.171,167.18,90.252,167.18,92.811z"/>
		</g>
		<g>
			
				<polyline fill="none" stroke="#000000" stroke-width="6" stroke-linecap="round" stroke-linejoin="round" stroke-miterlimit="10" points="
				132.371,188.083 132.371,151.03 124.371,140.688 124.371,119.083 			"/>
			<path fill="none" stroke="#F19F4D" stroke-width="6" stroke-miterlimit="10" d="M129.179,113.811
				c0,2.566-2.079,4.646-4.643,4.646c-2.564,0-4.642-2.079-4.642-4.646c0-2.558,2.076-4.639,4.642-4.639
				C127.1,109.171,129.179,111.252,129.179,113.811z"/>
		</g>
		<g>
			
				<polyline fill="none" stroke="#000000" stroke-width="6" stroke-linecap="round" stroke-linejoin="round" stroke-miterlimit="10" points="
				121.371,192.083 121.371,153.282 103.316,142.396 102.984,105.592 			"/>
			<path fill="none" stroke="#F9CF00" stroke-width="6" stroke-miterlimit="10" d="M108.179,99.811c0,2.566-2.079,4.646-4.643,4.646
				c-2.564,0-4.642-2.079-4.642-4.646c0-2.558,2.076-4.639,4.642-4.639C106.1,95.171,108.179,97.252,108.179,99.811z"/>
		</g>
	</g>
</g>
</svg>
